<svg width="1799" height="923" viewBox="0 0 1799 923" fill="none" xmlns="http://www.w3.org/2000/svg">
<g clip-path="url(#clip0_11_451)">
<rect x="22" y="190" width="1752" height="708" fill="url(#paint0_radial_11_451)"/>
<path d="M215 399L190.5 468L298.385 655.301L318.385 579.301L215 399Z" fill="url(#paint1_linear_11_451)"/>
<path d="M215.385 398.801H135.385L108.885 467.301L190.5 469L215.385 398.801Z" fill="url(#paint2_linear_11_451)"/>
<path d="M936.385 399.3C935.719 420.467 934.185 463.1 933.385 464.3H1084.89C1084.39 443.3 1083.19 400.9 1082.39 399.3C1081.59 397.7 984.719 398.634 936.385 399.3Z" fill="url(#paint3_linear_11_451)"/>
<path d="M1113.39 431.801L1116.89 501.301L1084.39 464.301L1082.39 398.301L1113.39 431.801Z" fill="url(#paint4_linear_11_451)"/>
<path d="M1629.39 543.301L1648.89 506.301H1700.39L1702.89 543.301H1629.39Z" fill="url(#paint5_linear_11_451)"/>
<path d="M1001.39 617.801L1003.89 547.801H1029.89L1032.39 617.801H1001.39Z" fill="url(#paint6_linear_11_451)"/>
<path d="M1032.89 616.801L1036.89 505.301H1031.89L1029.89 546.801L1032.89 616.801Z" fill="url(#paint7_linear_11_451)"/>
<path d="M1124.39 579.301L1128.89 652.301L1157.89 465.801L1151.39 397.801L1124.39 579.301Z" fill="url(#paint8_linear_11_451)"/>
<path d="M1334.39 465.801H1157.89L1151.89 398.301L1323.39 400.801L1334.39 465.801Z" fill="url(#paint9_linear_11_451)"/>
<path d="M261.885 399.301C261.085 398.901 246.219 443.134 238.885 465.301H314.385L335.385 399.301C311.219 399.467 262.685 399.701 261.885 399.301Z" fill="url(#paint10_linear_11_451)"/>
<path d="M416.885 561.801L314.385 465.301L334.885 399.301L387.885 449.301L383.385 465.301L416.885 561.801Z" fill="url(#paint11_linear_11_451)"/>
<path d="M448.885 465.801H383.385L401.385 398.301H465.385C460.552 420.801 450.485 465.801 448.885 465.801Z" fill="url(#paint12_linear_11_451)"/>
<path d="M518.885 652.801L533.885 580.801L465.385 398.301L447.885 465.801L518.885 652.801Z" fill="url(#paint13_linear_11_451)"/>
<path d="M411.885 611.801L401.885 653.301L358.385 564.801L411.885 611.801Z" fill="url(#paint14_linear_11_451)"/>
<path d="M558.385 399.301L544.385 465.301H462.885L474.885 399.301H558.385Z" fill="url(#paint15_linear_11_451)"/>
<path d="M624.885 488.301L558.385 399.301L543.385 464.801L617.385 562.301L624.885 488.301Z" fill="url(#paint16_linear_11_451)"/>
<path d="M709.385 399.301L699.885 464.801H626.385L638.885 399.301H709.385Z" fill="url(#paint17_linear_11_451)"/>
<path d="M758.385 399.801L751.885 464.801H840.385L845.385 399.801H758.385Z" fill="url(#paint18_linear_11_451)"/>
<path d="M922.885 653.801L924.885 580.301L845.385 399.301L839.885 464.801L922.885 653.801Z" fill="url(#paint19_linear_11_451)"/>
<path d="M714.885 576.301L705.385 651.301L752.385 465.801L757.885 399.301L714.885 576.301Z" fill="url(#paint20_linear_11_451)"/>
<path d="M806.885 535.301H795.885L788.885 580.301H824.885L806.885 535.301Z" fill="url(#paint21_linear_11_451)"/>
<path d="M1280.89 543.301H1220.39L1229.89 503.801H1275.39L1280.89 543.301Z" fill="url(#paint22_linear_11_451)"/>
<path d="M1288.39 617.301H1205.39L1213.89 581.301H1270.89L1279.89 545.801L1288.39 617.301Z" fill="url(#paint23_linear_11_451)"/>
<path d="M1299.39 580.301L1308.89 653.301L1371.89 465.801L1361.89 397.301L1299.39 580.301Z" fill="url(#paint24_linear_11_451)"/>
<path d="M1388.89 609.801L1395.89 653.301L1423.89 580.301H1400.39L1388.89 609.801Z" fill="url(#paint25_linear_11_451)"/>
<path d="M1438.89 544.801H1414.89L1430.89 506.301L1438.89 544.801Z" fill="url(#paint26_linear_11_451)"/>
<path d="M1430.39 505.801H1453.39L1439.39 544.301L1430.39 505.801Z" fill="url(#paint27_linear_11_451)"/>
<path d="M1361.89 397.301L1371.89 466.301H1508.89L1494.39 399.301L1361.89 397.301Z" fill="url(#paint28_linear_11_451)"/>
<path d="M1522.89 429.301L1493.89 399.301L1508.39 466.801L1539.89 498.301L1522.89 429.301Z" fill="url(#paint29_linear_11_451)"/>
<path d="M1500.39 580.301L1479.89 562.301L1495.39 555.801L1500.39 580.301Z" fill="url(#paint30_linear_11_451)"/>
<path d="M1617.39 619.301H1590.89L1595.89 579.801H1607.89L1617.39 619.301Z" fill="url(#paint31_linear_11_451)"/>
<path d="M1535.89 589.801C1531.89 598.801 1523.49 616.701 1521.89 616.301L1507.39 546.301L1518.39 519.301L1535.89 589.801Z" fill="url(#paint32_linear_11_451)"/>
<path d="M1605.89 589.801H1535.89L1518.39 517.801L1584.39 520.301L1605.89 589.801Z" fill="url(#paint33_linear_11_451)"/>
<path d="M1617.39 619.301L1638.89 579.801H1607.89L1617.39 619.301Z" fill="url(#paint34_linear_11_451)"/>
<path d="M1538.89 474.801L1555.89 544.301L1574.89 500.301L1557.89 432.301L1538.89 474.801Z" fill="url(#paint35_linear_11_451)"/>
<path d="M1641.89 465.801C1635.72 443.967 1623.29 400.001 1622.89 398.801C1601.89 409.801 1559.49 431.801 1557.89 431.801C1556.29 431.801 1568.55 477.467 1574.89 500.301L1641.89 465.801Z" fill="url(#paint36_linear_11_451)"/>
<path d="M1720.39 399.801L1622.89 398.301L1641.39 465.801H1741.89L1720.39 399.801Z" fill="url(#paint37_linear_11_451)"/>
<path d="M1659.89 506.301L1667.89 534.801L1684.89 506.301H1659.89Z" fill="url(#paint38_linear_11_451)"/>
<path d="M1717.89 572.801L1703.39 543.301L1701.89 522.301L1717.89 572.801Z" fill="url(#paint39_linear_11_451)"/>
<path d="M190.885 467.801H109.385L223.885 655.301H298.385L190.885 467.801Z" fill="url(#paint40_linear_11_451)"/>
<path d="M339.885 652.801L239.385 465.301H314.885L416.885 561.301L383.385 465.301H448.385L518.885 652.801H456.885L358.885 564.801L401.385 652.801H339.885Z" fill="url(#paint41_linear_11_451)"/>
<path fill-rule="evenodd" clip-rule="evenodd" d="M751.885 464.801H841.385L922.885 653.801H849.885L832.385 608.301H783.885L774.385 651.801H705.885L751.885 464.801ZM788.885 579.801L796.885 535.301H806.885L824.385 579.801H788.885Z" fill="url(#paint42_linear_11_451)"/>
<path fill-rule="evenodd" clip-rule="evenodd" d="M933.885 463.801H1085.89L1116.89 500.801L1102.39 624.801L1053.39 653.301H933.885V463.801ZM1001.89 616.801L1007.39 505.301H1036.89L1032.89 616.801H1001.89Z" fill="url(#paint43_linear_11_451)"/>
<path d="M544.885 464.801H463.885L606.385 651.801H667.885L700.385 464.801H626.385L616.885 561.801L544.885 464.801Z" fill="url(#paint44_linear_11_451)"/>
<path fill-rule="evenodd" clip-rule="evenodd" d="M1371.89 465.801H1508.39L1539.89 497.801L1515.39 549.301L1480.89 563.801L1501.39 580.301L1469.89 653.301H1396.39L1424.39 580.301H1400.89L1371.89 653.301H1309.39L1371.89 465.801ZM1415.39 543.801L1431.39 505.801H1453.89L1439.39 543.801H1415.39Z" fill="url(#paint45_linear_11_451)"/>
<path d="M1333.89 465.801H1157.89L1129.39 652.301H1280.39L1288.89 617.301H1205.89L1214.39 580.801H1271.39L1280.39 543.301H1220.89L1229.89 504.301H1321.89L1333.89 465.801Z" fill="url(#paint46_linear_11_451)"/>
<path d="M1574.89 499.801L1642.39 465.801H1741.89L1758.89 503.801L1740.89 534.301L1667.89 535.301L1684.89 506.301H1648.89L1629.89 543.301H1702.89L1717.89 572.801C1709.55 587.301 1692.59 616.301 1691.39 616.301C1690.19 616.301 1648.89 639.967 1628.39 651.801H1543.89L1522.89 616.301L1536.39 589.801H1605.89L1590.89 618.801H1617.39L1638.89 579.801H1574.89L1555.39 543.301L1574.89 499.801Z" fill="url(#paint47_linear_11_451)"/>
<path d="M1064.39 205.301L1058.89 132.301L1047.39 303.801C1048.72 328.467 1051.39 378.301 1051.39 380.301C1051.39 382.301 1060.05 264.467 1064.39 205.301Z" fill="url(#paint48_linear_11_451)"/>
<path d="M1058.89 132.301C1058.89 130.301 1099.83 97.8333 1120 81.5L1127.39 150.301L1064.39 203.801C1062.55 180.801 1058.89 134.301 1058.89 132.301Z" fill="url(#paint49_linear_11_451)"/>
<path d="M1270.89 133.801L1231.89 80.8005L1244.89 149.301L1284.39 203.801L1270.89 133.801Z" fill="url(#paint50_linear_11_451)"/>
<path d="M549.385 79.3005L526.385 150.801L702 152L718.885 79.3005H549.385Z" fill="url(#paint51_linear_11_451)"/>
<path d="M779 134L718.385 79.8005L700.885 151.301L763.885 205.801L779 134Z" fill="url(#paint52_linear_11_451)"/>
<path d="M778.885 133.801C778.485 133.001 769.167 181.167 764 205.5L773.885 308.801L786.885 229.801C784.385 198.134 779.285 134.601 778.885 133.801Z" fill="url(#paint53_linear_11_451)"/>
<path d="M330.385 79.3005L294.385 150.801H420.885L452.385 79.3005H330.385Z" fill="url(#paint54_linear_11_451)"/>
<path d="M853.885 79.3005L845.385 150.801H946.385V79.3005H853.885Z" fill="url(#paint55_linear_11_451)"/>
<path d="M1119.89 81.8005L1126.39 150.801L1244.89 149.301L1231.89 81.8005H1119.89Z" fill="url(#paint56_linear_11_451)"/>
<path d="M1345.39 80.8005L1364.39 150.801H1575.89L1546.39 80.8005H1345.39Z" fill="url(#paint57_linear_11_451)"/>
<path d="M1435.89 206.301L1419.39 266.301L1491.39 264.813L1470.39 206.301H1435.89Z" fill="url(#paint58_linear_11_451)"/>
<path d="M1403.39 324.801L1387.89 382.301H1486.89L1470.89 324.801H1403.39Z" fill="url(#paint59_linear_11_451)"/>
<path d="M1171.39 245.301L1180.39 322.301H1265.39L1251.89 245.301H1171.39Z" fill="url(#paint60_linear_11_451)"/>
<path d="M1171.5 245.5C1171.5 243.9 1166.89 280.467 1164.89 299.301C1168.39 325.467 1175.39 378.201 1175.39 379.801C1175.39 381.401 1179.33 345 1181.5 325.5C1177.83 300 1172 247 1171.5 245.5Z" fill="url(#paint61_linear_11_451)"/>
<path d="M1142.89 298.801L1136.89 379.301H1175.39L1164.89 298.801H1142.89Z" fill="url(#paint62_linear_11_451)"/>
<path d="M897.385 256.301L880.385 323.801H917.885L897.385 256.301Z" fill="url(#paint63_linear_11_451)"/>
<path d="M1193.89 204.801H1178.39L1188.89 264.801L1193.89 204.801Z" fill="url(#paint64_linear_11_451)"/>
<path d="M944.5 149.5L945.885 77.8005L1028.39 343.801V425.801L944.5 149.5Z" fill="url(#paint65_linear_11_451)"/>
<path d="M1364.39 150.801L1344.89 80.3005L1279.39 342.301L1294.39 428.801L1364.39 150.801Z" fill="url(#paint66_linear_11_451)"/>
<path d="M846.385 150.301L854 79L786.385 345.801L777.885 424.301L846.385 150.301Z" fill="url(#paint67_linear_11_451)"/>
<path d="M651.385 308.301L631.385 206.801L663.385 205.301L669.885 233.801L651.385 308.301Z" fill="url(#paint68_linear_11_451)"/>
<path d="M678.385 233.801L690.385 308.301H650.885L669.385 233.801H678.385Z" fill="url(#paint69_linear_11_451)"/>
<path d="M482.385 201.801L417.885 151.301L451.885 79.8005L508.385 126.801L482.385 201.801Z" fill="url(#paint70_linear_11_451)"/>
<path d="M468.885 267.301H379.385L405.385 211.801L417.885 247.301H475.885L468.885 267.301Z" fill="url(#paint71_linear_11_451)"/>
<path d="M475.385 247.301L468.385 267.301L515.885 307.801L542.385 230.301L512.385 208.301L497.885 247.301H475.385Z" fill="url(#paint72_linear_11_451)"/>
<path d="M515.885 307.301L539.385 379.801L563.885 295.801L541.885 229.801L515.885 307.301Z" fill="url(#paint73_linear_11_451)"/>
<path d="M325.885 341.301L339.385 309.301L360.885 323.801H413.885L406.885 341.301H325.885Z" fill="url(#paint74_linear_11_451)"/>
<path d="M421.885 379.301L406.885 341.801L413.885 324.301H441.885L443.885 329.801L421.885 379.301Z" fill="url(#paint75_linear_11_451)"/>
<path d="M460.385 378.801H421.885L444.385 331.301L460.385 378.801Z" fill="url(#paint76_linear_11_451)"/>
<path d="M674.385 426.801L659.385 349.301H692.385L674.385 426.801Z" fill="url(#paint77_linear_11_451)"/>
<path d="M482.385 200.301L498.885 248.301L522.885 175.301L508.385 126.801L482.385 200.301Z" fill="url(#paint78_linear_11_451)"/>
<path d="M353.385 200.301L378.885 267.801L407.385 206.301L405.385 199.801L353.385 200.301Z" fill="url(#paint79_linear_11_451)"/>
<path fill-rule="evenodd" clip-rule="evenodd" d="M776.385 424.801H854.385L870.385 363.801H930.385L948.885 424.801H1028.39L944.885 149.301H844.885L776.385 424.801ZM880.885 321.801H917.885L896.885 255.301L880.885 321.801Z" fill="#FFE213"/>
<path d="M1245.39 149.301H1127.39C1108.89 167.467 1066.89 201.801 1064.39 203.801C1063.39 213.301 1053.22 320.467 1051.39 378.801L1092.89 425.801H1196.39L1256.39 378.801L1265.39 321.801H1180.89L1175.39 378.801H1135.89L1150.39 203.801H1193.89L1188.39 264.801H1276.39L1284.39 203.801L1245.39 149.301Z" fill="#FFE213"/>
<path d="M1294.39 428.801L1363.89 151.301H1575.89L1559.89 207.301H1435.39C1430.22 226.301 1420.89 263.501 1420.89 266.301C1426.35 266.301 1443.98 265.888 1462.26 265.46C1472.43 265.222 1482.8 264.979 1491.39 264.801L1474.39 324.801H1403.89L1388.39 381.801H1486.89L1474.39 428.801H1294.39Z" fill="#FFE213"/>
<path fill-rule="evenodd" clip-rule="evenodd" d="M598.385 427.301H674.885L659.385 349.301H738.885L773.385 308.301L763.885 205.801L701.385 151.301H526.385L598.385 427.301ZM651.385 308.301L631.885 206.801L672.885 205.801L690.385 308.301H651.385Z" fill="#FFE213"/>
<path d="M294.885 150.301H418.385L482.385 200.801L498.385 247.301H418.385L400.885 200.801H353.885L379.385 267.301H468.885L515.885 307.301L539.885 379.301L498.385 426.801H411.385L344.885 384.801L325.885 340.801H406.885L422.385 379.301H460.885L441.385 324.301H360.885L299.885 281.801L267.385 205.301L294.885 150.301Z" fill="#FFE213"/>
<g filter="url(#filter0_d_11_451)">
<path d="M1207.55 733.84C1206.87 733.887 1206.28 733.559 1205.78 732.857C1205.42 732.541 1205.02 732.031 1204.57 731.325C1204.12 730.619 1203.9 729.444 1203.9 727.8C1203.95 726.096 1204.41 723.6 1205.26 720.311C1205.67 718.128 1206.02 716.546 1206.29 715.564C1206.56 714.525 1206.68 713.78 1206.65 713.329C1206.6 712.708 1206.62 712.197 1206.71 711.794C1206.85 711.331 1206.9 710.902 1206.88 710.507C1207.22 710.484 1207.53 710.151 1207.83 709.507C1208.12 708.863 1208.35 707.997 1208.5 706.91C1208.66 705.936 1208.8 705.16 1208.93 704.585C1209.12 703.949 1209.2 703.518 1209.19 703.292C1209.44 702.821 1209.67 702.097 1209.89 701.119C1210.16 700.136 1210.59 698.945 1211.17 697.545C1211.5 695.821 1211.89 694.038 1212.33 692.194C1212.77 690.293 1213.21 688.534 1213.67 686.916C1214.18 685.237 1214.6 683.933 1214.93 683.003C1215.43 681.212 1215.82 679.966 1216.12 679.266C1216.4 678.509 1216.37 678.03 1216.02 677.827C1215.6 677.573 1215.36 676.881 1215.28 675.753C1215.25 674.564 1215.72 673.512 1216.68 672.596C1217.25 671.82 1218 671.258 1218.94 670.91C1219.88 670.505 1220.97 670.26 1222.21 670.175C1223.45 670.089 1224.75 670.056 1226.11 670.076C1227.13 670.062 1228.2 670.017 1229.33 669.939C1230.52 669.857 1231.25 669.807 1231.53 669.787C1232.05 669.978 1232.69 670.189 1233.44 670.421C1234.2 670.652 1234.87 670.89 1235.45 671.133C1236.09 671.316 1236.41 671.492 1236.42 671.661C1236.44 671.999 1236.57 672.217 1236.81 672.315C1237.09 672.352 1237.38 672.389 1237.66 672.425C1238.06 672.398 1238.73 672.72 1239.69 673.391C1240.63 674.006 1241.6 674.79 1242.57 675.743C1243.59 676.636 1244.34 677.548 1244.8 678.48C1245.31 679.408 1245.74 680.285 1246.08 681.112C1246.48 681.935 1246.59 683.146 1246.42 684.745C1246.42 685.595 1246.34 686.45 1246.17 687.312C1246.06 688.17 1245.9 688.747 1245.69 689.045C1245.37 689.294 1245.08 689.597 1244.82 689.955C1244.56 690.313 1244.44 690.633 1244.46 690.915C1244.48 691.141 1244.29 691.72 1243.9 692.654C1243.51 693.531 1243.01 694.557 1242.41 695.732C1241.81 696.851 1241.15 697.973 1240.44 699.099C1239.72 700.225 1239.05 701.122 1238.41 701.789C1237.74 702.742 1236.92 703.648 1235.96 704.508C1235.06 705.364 1234.23 706.073 1233.47 706.635C1232.05 707.413 1230.41 708.178 1228.53 708.931C1226.71 709.679 1224.94 710.311 1223.22 710.827C1221.5 711.286 1220.1 711.524 1219.02 711.541C1217.4 711.879 1216.34 712.179 1215.85 712.44C1215.36 712.644 1215.02 713.148 1214.85 713.954C1214.62 714.706 1214.39 715.487 1214.16 716.297C1213.99 717.102 1213.92 717.674 1213.94 718.012C1213.84 718.246 1213.63 718.884 1213.31 719.926C1213.04 720.965 1212.7 722.178 1212.28 723.567C1211.92 724.952 1211.59 726.335 1211.29 727.716C1210.99 729.097 1210.76 730.275 1210.6 731.249C1210.43 732.055 1209.99 732.68 1209.28 733.125C1208.64 733.567 1208.06 733.805 1207.55 733.84ZM1217.62 704.752C1217.86 704.962 1218.59 704.939 1219.82 704.685C1221.05 704.43 1222.52 703.904 1224.22 703.107C1225.32 702.634 1226.42 702.077 1227.51 701.435C1228.65 700.789 1229.74 700.091 1230.76 699.34C1231.3 698.907 1231.86 698.386 1232.44 697.78C1233.02 697.116 1233.82 696.041 1234.85 694.553C1235 694.259 1235.25 693.704 1235.59 692.887C1235.98 692.01 1236.32 691.193 1236.61 690.436C1237.06 689.611 1237.49 688.42 1237.89 686.862C1238.29 685.248 1238.32 683.943 1237.96 682.947C1237.58 681.499 1236.93 680.325 1236.02 679.425C1235.1 678.468 1233.98 677.808 1232.65 677.446C1231.4 677.306 1230.34 677.237 1229.49 677.239C1228.7 677.237 1227.83 677.354 1226.88 677.589C1226 677.933 1225.38 678.373 1225.02 678.908C1224.71 679.439 1224.28 680.545 1223.72 682.228C1223.38 683.045 1222.89 684.184 1222.25 685.644C1221.61 687.049 1221.09 688.473 1220.68 689.919C1219.92 693.711 1219.21 696.622 1218.56 698.651C1217.96 700.676 1217.57 702.006 1217.39 702.642C1217.49 703.259 1217.49 703.712 1217.4 704.002C1217.3 704.235 1217.37 704.485 1217.62 704.752Z" fill="white"/>
<path d="M1241.91 726.032C1241.18 726.082 1240.57 725.982 1240.1 725.731C1239.69 725.476 1239.15 725.117 1238.5 724.652C1237.35 723.597 1236.39 722.445 1235.62 721.194C1234.92 719.939 1234.61 718.827 1234.71 717.856C1234.85 717.393 1234.88 716.966 1234.8 716.575C1234.77 716.124 1234.75 715.898 1234.75 715.898C1234.45 715.636 1234.35 715.472 1234.46 715.408C1234.57 715.288 1234.67 715.111 1234.76 714.877C1235.1 714.854 1235.19 714.536 1235.04 713.923C1234.9 713.48 1235 712.509 1235.35 711.011C1235.75 709.453 1236.33 707.968 1237.08 706.556C1237.38 705.969 1237.84 705.201 1238.45 704.251C1239.06 703.246 1239.73 702.265 1240.46 701.308C1241.24 700.29 1241.95 699.476 1242.59 698.866C1243.92 697.584 1245.15 696.536 1246.28 695.721C1247.47 694.902 1248.68 694.309 1249.9 693.941C1251.12 693.574 1252.38 693.345 1253.68 693.256C1255.03 693.163 1256.16 693.538 1257.07 694.382C1258.41 694.857 1259.36 695.556 1259.94 696.48C1260.57 697.4 1261.02 698.616 1261.29 700.128C1261.58 701.808 1261.55 703.907 1261.22 706.424C1260.88 708.884 1259.69 711.8 1257.65 715.171C1256.38 717.299 1255.11 718.973 1253.83 720.195C1252.56 721.416 1251.14 722.563 1249.57 723.634C1248.44 724.506 1247.2 725.072 1245.86 725.335C1244.51 725.597 1243.2 725.83 1241.91 726.032ZM1249.83 715.115C1251 713.957 1251.79 712.713 1252.21 711.38C1252.68 710.044 1253.17 708.48 1253.67 706.689C1253.87 706.335 1253.97 705.761 1253.98 704.967C1254.03 704.17 1254.01 703.406 1253.9 702.677C1253.79 701.891 1253.56 701.454 1253.22 701.364C1252.68 701.004 1252.17 700.954 1251.68 701.215C1251.18 701.419 1250.56 701.831 1249.81 702.449C1248.21 703.976 1246.74 705.721 1245.41 707.683C1244.12 709.585 1243.29 711.881 1242.91 714.571C1242.83 715.993 1243.05 717.055 1243.55 717.758C1244.1 718.4 1244.91 718.543 1245.96 718.187C1247.06 717.771 1248.35 716.747 1249.83 715.115Z" fill="white"/>
<path d="M1265 722.486C1264.16 722.544 1263.27 721.982 1262.34 720.799C1261.4 719.56 1260.62 718.027 1259.98 716.201C1259.4 714.37 1259.11 712.549 1259.09 710.736C1258.97 708.931 1258.96 707.486 1259.05 706.403C1259.2 705.259 1259.35 704.144 1259.5 703.056C1259.65 702.706 1259.71 702.419 1259.7 702.193C1259.74 701.963 1259.77 701.593 1259.79 701.081C1259.87 700.566 1260.01 699.706 1260.21 698.502C1260.37 697.528 1260.54 696.722 1260.72 696.086C1260.96 695.446 1261.16 695.008 1261.31 694.77C1261.92 693.821 1262.65 693.233 1263.48 693.005C1264.31 692.722 1265.08 692.754 1265.79 693.102C1266.55 693.446 1267.01 694.009 1267.18 694.791C1267.54 695.05 1267.75 695.687 1267.82 696.702C1267.94 697.658 1267.96 698.677 1267.86 699.76C1267.76 700.787 1267.56 701.538 1267.25 702.013C1267.16 702.302 1267.07 703.045 1266.98 704.242C1266.95 705.434 1266.89 706.685 1266.81 707.994C1266.79 709.299 1266.72 710.352 1266.6 711.154C1266.51 712.181 1266.61 712.825 1266.91 713.088C1267.26 713.29 1267.81 712.998 1268.55 712.21C1269.34 711.362 1270.34 709.904 1271.56 707.837C1272.57 706.067 1273.3 704.685 1273.74 703.691C1274.24 702.693 1274.6 701.789 1274.83 700.98C1275.11 700.167 1275.42 699.211 1275.74 698.112C1275.96 697.19 1276.16 696.44 1276.35 695.86C1276.59 695.276 1276.82 694.864 1277.03 694.623C1277.59 693.678 1278.38 693.255 1279.41 693.354C1280.49 693.393 1281.38 693.615 1282.09 694.019C1282.81 694.65 1283.27 695.553 1283.46 696.73C1283.71 697.846 1283.54 699.105 1282.96 700.505C1282.57 701.439 1282.19 702.542 1281.83 703.814C1281.52 705.082 1281.26 706.346 1281.07 707.607C1280.93 708.863 1280.89 709.943 1280.95 710.845C1281.03 711.974 1281.22 712.641 1281.51 712.847C1281.86 712.993 1282.26 713.05 1282.72 713.019C1283.39 712.973 1284.03 712.702 1284.61 712.208C1285.2 711.658 1286.04 710.721 1287.14 709.399C1287.61 708.856 1288.18 708.052 1288.85 706.986C1289.51 705.92 1290.14 704.8 1290.74 703.625C1291.4 702.446 1291.92 701.418 1292.31 700.541C1292.76 699.604 1292.97 699.022 1292.96 698.796C1292.93 698.458 1293.16 697.961 1293.62 697.305C1293.93 696.831 1294.16 696.475 1294.31 696.238C1294.52 695.94 1294.89 695.631 1295.44 695.31C1295.87 695.053 1296.38 694.99 1296.96 695.12C1297.53 695.194 1298.03 695.443 1298.45 695.867C1298.75 696.074 1298.99 696.624 1299.16 697.519C1299.39 698.353 1299.53 699.109 1299.57 699.786C1299.45 700.418 1299.25 701.31 1298.99 702.461C1298.73 703.556 1298.43 704.625 1298.11 705.668C1297.83 706.65 1297.57 707.32 1297.31 707.678C1297.1 707.919 1296.73 708.369 1296.21 709.029C1295.69 709.632 1295.22 710.287 1294.82 710.995C1293.52 712.785 1292.58 713.955 1292 714.505C1291.41 715.055 1290.91 715.572 1290.49 716.054C1289.39 717.32 1288.1 718.372 1286.63 719.211C1285.15 719.993 1283.74 720.486 1282.39 720.693C1281.04 720.842 1279.95 720.662 1279.13 720.153C1277.32 719.37 1276.34 717.908 1276.19 715.764C1276.16 715.313 1276.05 714.924 1275.85 714.597C1275.71 714.21 1275.64 714.016 1275.64 714.016C1275.42 714.032 1275.11 714.11 1274.72 714.25C1274.39 714.386 1274.05 714.806 1273.71 715.51C1273.26 716.504 1272.46 717.551 1271.29 718.652C1270.17 719.693 1269.01 720.594 1267.82 721.357C1266.62 722.063 1265.68 722.439 1265 722.486Z" fill="white"/>
<path d="M1304.85 723.821C1301.75 724.035 1299.29 723.298 1297.47 721.609C1295.71 719.917 1294.7 717.209 1294.45 713.486C1294.31 711.456 1294.52 709.202 1295.09 706.726C1295.71 704.246 1296.56 701.807 1297.64 699.409C1298.78 697.007 1300.05 694.907 1301.46 693.11C1302.86 691.256 1304.3 689.939 1305.78 689.157C1306.32 688.836 1306.9 688.598 1307.51 688.442C1308.18 688.226 1308.82 688.097 1309.44 688.054C1310.12 688.008 1310.86 688.013 1311.65 688.072C1312.5 688.07 1313.3 688.185 1314.06 688.416C1315.38 688.722 1316.56 689.406 1317.6 690.468C1318.69 691.526 1319.31 693.127 1319.46 695.27C1319.5 695.834 1319.49 696.459 1319.42 697.143C1319.35 697.772 1319.19 698.406 1318.96 699.046C1318.35 700.958 1317.34 702.812 1315.94 704.609C1314.59 706.403 1313.12 707.694 1311.53 708.484C1311.09 708.74 1310.65 708.941 1310.21 709.085C1309.82 709.168 1309.4 709.226 1308.95 709.257C1307.76 709.338 1306.68 709.243 1305.7 708.971C1304.77 708.694 1303.89 708.301 1303.06 707.792L1302.35 707.246L1301.98 708.121C1301.66 709.22 1301.44 710.142 1301.32 710.887C1301.26 711.628 1301.24 712.168 1301.26 712.506C1301.31 713.183 1301.39 713.886 1301.49 714.616C1301.6 715.289 1301.81 715.841 1302.12 716.273C1302.36 716.54 1302.66 716.746 1303.01 716.892C1303.42 717.034 1303.9 717.085 1304.47 717.047C1304.81 717.023 1305.12 717.002 1305.4 716.982C1305.73 716.903 1306.01 716.827 1306.23 716.755C1307.23 716.459 1308.03 716.036 1308.61 715.486C1309.25 714.875 1309.92 714.347 1310.63 713.902L1310.95 713.709L1310.85 713.461C1311.78 712.887 1312.4 712.533 1312.73 712.396C1313.06 712.204 1313.3 712.045 1313.47 711.921C1313.68 711.68 1313.92 711.549 1314.2 711.53C1314.99 711.363 1315.76 711.536 1316.54 712.05C1317.36 712.503 1317.8 713.124 1317.85 713.914C1317.88 714.252 1317.66 714.806 1317.2 715.574C1316.8 716.338 1316.26 717.113 1315.58 717.896C1314.95 718.62 1314.28 719.204 1313.57 719.65C1313.41 719.718 1313.24 719.814 1313.08 719.939C1312.92 720.007 1312.75 720.103 1312.59 720.227L1312.68 720.222C1312.22 720.933 1311.73 721.307 1311.22 721.342L1310.55 721.388C1310.35 721.799 1309.65 722.272 1308.44 722.809C1307.23 723.402 1306.03 723.74 1304.85 723.821ZM1307.84 703.127C1308.35 703.092 1308.8 702.976 1309.18 702.78C1309.62 702.579 1310.03 702.353 1310.41 702.1C1311.7 701.048 1312.49 699.746 1312.78 698.196C1313.07 696.646 1312.84 695.499 1312.11 694.756C1311.99 694.595 1311.84 694.492 1311.67 694.447C1311.49 694.346 1311.29 694.303 1311.06 694.318C1310.44 694.361 1309.75 694.607 1308.99 695.056C1308.28 695.502 1307.59 696.116 1306.91 696.9C1306.22 697.684 1305.61 698.605 1305.06 699.663L1304.08 701.516C1304.19 701.452 1304.27 701.418 1304.33 701.414C1304.43 701.35 1304.52 701.315 1304.57 701.312C1305.08 701.277 1305.43 701.423 1305.62 701.749C1305.82 702.076 1306.04 702.401 1306.29 702.724C1306.59 703.043 1307.11 703.177 1307.84 703.127Z" fill="white"/>
<path d="M1324.34 719.163C1324.17 719.232 1323.8 719.229 1323.23 719.155C1322.71 719.077 1322.17 718.973 1321.59 718.842C1321.07 718.708 1320.75 718.588 1320.63 718.483C1320.39 718.273 1320.05 717.9 1319.62 717.363C1319.18 716.77 1318.9 715.967 1318.77 714.956C1318.7 713.94 1319.1 712.695 1319.96 711.218C1320.21 710.635 1320.49 709.765 1320.8 708.61C1321.12 707.455 1321.43 706.243 1321.74 704.975C1322.1 703.646 1322.42 702.463 1322.69 701.424C1323.01 700.381 1323.25 699.657 1323.39 699.25C1323.44 698.284 1323.33 697.611 1323.08 697.231C1322.88 696.792 1322.38 696.571 1321.59 696.569C1321.02 696.608 1320.56 696.441 1320.19 696.07C1319.88 695.694 1319.7 694.999 1319.63 693.984C1319.68 693.186 1319.83 692.496 1320.08 691.912C1320.37 691.268 1320.79 690.73 1321.33 690.296C1321.87 689.975 1322.56 689.729 1323.4 689.558C1324.3 689.383 1325.17 689.294 1326.02 689.293C1326.87 689.291 1327.47 689.447 1327.84 689.762C1328.25 689.961 1328.59 690.447 1328.87 691.221C1329.2 691.935 1329.48 692.681 1329.71 693.459C1329.93 694.237 1330.08 694.822 1330.17 695.213C1330.7 694.723 1331.28 694.059 1331.9 693.223C1332.58 692.326 1333.25 691.486 1333.94 690.702C1334.8 690.02 1335.83 689.325 1337.02 688.619C1338.22 687.857 1339.1 687.456 1339.66 687.418C1340.28 687.375 1341.06 687.633 1342.01 688.191C1342.95 688.693 1343.55 689.162 1343.81 689.597C1344.44 690.517 1344.9 691.506 1345.2 692.562C1345.55 693.558 1345.45 694.472 1344.88 695.304C1344.37 696.077 1343.63 696.864 1342.66 697.667C1341.69 698.414 1340.44 698.699 1338.9 698.522C1338.55 698.433 1338.15 698.035 1337.71 697.329C1337.32 696.619 1337.09 696.096 1337.01 695.762C1336.99 695.593 1336.75 695.779 1336.28 696.322C1335.86 696.804 1335.33 697.407 1334.7 698.131C1334.13 698.85 1333.58 699.512 1333.05 700.115C1332.18 701.365 1331.27 703.043 1330.34 705.147C1329.41 707.252 1328.31 709.793 1327.04 712.771C1326.46 714.228 1325.99 715.621 1325.63 716.949C1325.26 718.221 1324.83 718.959 1324.34 719.163Z" fill="white"/>
<path d="M1347.03 718.62C1344.76 717.869 1343.14 716.508 1342.15 714.535C1341.17 712.563 1340.76 709.871 1340.92 706.459C1340.91 704.703 1340.77 703.55 1340.51 703.002C1340.24 702.397 1339.78 701.834 1339.12 701.312C1338.93 701.098 1338.51 700.759 1337.86 700.294C1337.2 699.773 1336.89 699.369 1336.92 699.083C1336.84 698.692 1336.89 698.207 1337.08 697.627C1337.26 696.991 1337.44 696.639 1337.6 696.571C1337.98 696.375 1338.37 696.15 1338.75 695.897C1339.18 695.64 1339.52 695.561 1339.75 695.658C1339.97 695.642 1340.32 695.76 1340.79 696.011C1341.32 696.258 1341.59 696.494 1341.61 696.72C1341.86 697.099 1342.19 696.907 1342.59 696.142C1343.04 695.374 1343.52 694.406 1344 693.239C1344.5 692.298 1345.15 691.403 1345.94 690.555C1346.74 689.707 1347.53 688.944 1348.34 688.265C1349.19 687.526 1349.92 686.966 1350.52 686.585C1350.79 686.453 1351.31 686.246 1352.09 685.966C1352.92 685.682 1353.78 685.453 1354.68 685.278C1355.57 685.047 1356.24 684.944 1356.7 684.969C1357.71 684.955 1358.82 685.305 1360 686.017C1361.18 686.729 1362.11 687.402 1362.77 688.036C1363.54 688.493 1364.07 689.25 1364.37 690.306C1364.73 691.302 1364.91 692.366 1364.93 693.498C1364.96 694.63 1364.8 695.604 1364.46 696.421C1364.33 696.997 1363.79 697.828 1362.84 698.913C1361.9 699.998 1360.84 701.063 1359.66 702.107C1358.54 703.092 1357.57 703.782 1356.74 704.179C1356.02 704.398 1355.16 704.6 1354.15 704.782C1353.14 704.909 1352.18 704.975 1351.27 704.981C1350.42 704.926 1349.82 704.826 1349.47 704.68C1349.06 704.482 1348.72 704.59 1348.47 705.004C1348.27 705.358 1348.14 706.33 1348.07 707.921C1348.06 708.546 1348.1 709.082 1348.19 709.529C1348.33 709.973 1348.47 710.303 1348.59 710.521C1349.04 711.171 1349.47 711.651 1349.88 711.963C1350.3 712.217 1351.04 712.251 1352.1 712.065C1353.17 711.878 1354.19 711.156 1355.18 709.897C1356.22 708.579 1357.17 707.521 1358.02 706.726C1358.22 706.316 1358.68 706.029 1359.41 705.865C1360.19 705.642 1361.12 705.634 1362.21 705.842C1362.86 706.194 1363.19 706.795 1363.19 707.645C1363.25 708.492 1362.88 709.764 1362.09 711.462C1361.95 711.868 1361.51 712.493 1360.78 713.338C1360.09 714.121 1359.33 714.939 1358.48 715.791C1357.68 716.583 1357.01 717.167 1356.47 717.545C1354.84 718.564 1353.21 719.101 1351.57 719.158C1349.93 719.214 1348.42 719.035 1347.03 718.62ZM1351.98 699.151C1352.81 698.867 1353.5 698.593 1354.05 698.329C1354.65 698.06 1355.22 697.653 1355.75 697.106C1356.28 696.56 1356.87 695.754 1357.54 694.688C1357.72 694.052 1357.79 693.508 1357.76 693.057C1357.79 692.602 1357.74 692.321 1357.62 692.216C1357.14 691.796 1356.62 691.69 1356.07 691.898C1355.57 692.046 1355.02 692.367 1354.43 692.861C1354.05 693.057 1353.51 693.463 1352.82 694.077C1352.18 694.632 1351.54 695.271 1350.91 695.994C1350.33 696.657 1349.86 697.285 1349.51 697.876C1349.2 698.407 1349.17 698.721 1349.4 698.818C1349.31 699.052 1349.63 699.171 1350.36 699.177C1351.16 699.179 1351.69 699.171 1351.98 699.151Z" fill="white"/>
<path d="M1384.72 717.809C1384.11 718.078 1383.41 718.239 1382.62 718.293C1381.89 718.4 1381.02 718.12 1380.02 717.453C1379.41 716.871 1378.97 716.25 1378.7 715.589C1378.48 714.923 1378.32 713.886 1378.23 712.475C1378.28 711.621 1378.42 710.393 1378.65 708.79C1378.88 707.131 1379.13 705.414 1379.4 703.638C1379.73 701.802 1380.01 700.167 1380.26 698.733C1380.55 697.239 1380.79 696.231 1380.98 695.708C1381.28 694.327 1381.31 693.475 1381.06 693.152C1380.81 692.829 1380.12 692.678 1378.99 692.699C1377.69 692.732 1376.38 693.446 1375.06 694.841C1373.74 696.235 1372.27 698.405 1370.66 701.35C1369.45 703.53 1368.75 705.307 1368.56 706.68C1368.37 707.997 1368.4 708.901 1368.66 709.394C1368.79 709.611 1369 709.739 1369.28 709.776C1369.62 709.753 1370.01 709.641 1370.45 709.44C1370.95 709.236 1371.47 708.974 1372.01 708.653C1372.39 708.4 1372.86 708.141 1373.4 707.877C1374.01 707.552 1374.58 707.257 1375.13 706.993C1375.47 706.97 1375.71 707.151 1375.85 707.538C1376.04 707.922 1376.16 708.395 1376.2 708.959C1376.22 709.185 1376.3 709.604 1376.46 710.217C1376.67 710.826 1376.98 711.229 1377.39 711.428C1377.63 711.638 1377.18 712.15 1376.05 712.965C1374.97 713.72 1373.56 714.667 1371.83 715.807C1370.16 716.318 1368.91 716.603 1368.06 716.661C1367.27 716.716 1366.37 716.409 1365.36 715.742C1363.71 714.892 1362.58 713.185 1361.95 710.621C1361.37 708.054 1361.51 705.154 1362.37 701.921C1363.26 699.309 1364.3 697.055 1365.47 695.161C1366.7 693.206 1367.99 691.417 1369.35 689.793C1369.56 689.552 1370.24 689.052 1371.38 688.293C1372.51 687.535 1373.69 686.915 1374.9 686.435C1376.28 685.887 1377.46 685.636 1378.42 685.682C1379.44 685.669 1380.42 685.941 1381.37 686.5C1382.4 686.655 1383.07 686.58 1383.39 686.275C1383.77 685.966 1384.17 685.145 1384.58 683.813C1385.41 680.922 1386.28 678 1387.21 675.045C1388.14 672.034 1389.12 668.991 1390.15 665.916C1390.64 664.806 1390.92 663.964 1391 663.392C1391.13 662.76 1391.29 662.324 1391.5 662.083L1393.82 661.158C1394.43 660.946 1395.15 661.179 1395.99 661.858C1396.89 662.533 1397.47 663.201 1397.75 663.863C1397.78 664.37 1397.63 665.514 1397.3 667.294C1396.97 669.017 1396.38 671.098 1395.52 673.538C1394.76 675.687 1394.01 677.864 1393.25 680.07C1392.55 682.215 1391.89 684.5 1391.26 686.923C1390.76 688.715 1390.29 690.164 1389.86 691.271C1389.42 692.377 1389.15 693.331 1389.04 694.133C1388.8 695.623 1388.47 696.977 1388.04 698.197C1387.67 699.356 1387.41 700.167 1387.27 700.63C1386.69 702.824 1386.25 704.64 1385.95 706.077C1385.65 707.458 1385.47 708.661 1385.43 709.684C1385.38 710.65 1385.42 711.611 1385.54 712.566C1385.66 713.465 1385.85 714.501 1386.1 715.674C1386.11 715.899 1385.97 716.249 1385.66 716.724C1385.41 717.138 1385.09 717.5 1384.72 717.809Z" fill="white"/>
<path d="M1414.78 714.208C1413.64 714.173 1412.72 713.953 1412.01 713.548C1411.36 713.084 1410.83 712.496 1410.45 711.786C1409.96 711.31 1409.65 710.934 1409.52 710.66C1409.44 710.382 1409.42 710.128 1409.47 709.898C1409.75 709.879 1410 709.861 1410.23 709.846C1410.45 709.774 1410.58 709.651 1410.63 709.478C1410.61 709.309 1410.69 709.19 1410.86 709.122C1411.08 709.05 1411.3 709.035 1411.53 709.076C1412.61 709.058 1413.88 708.602 1415.35 707.708C1416.88 706.809 1418.52 705.591 1420.28 704.052C1422.04 702.457 1423.8 700.75 1425.54 698.929C1426.88 696.91 1427.79 695.43 1428.3 694.489C1428.86 693.543 1429.12 692.845 1429.09 692.394C1429.11 691.882 1428.96 691.382 1428.64 690.894C1428.39 690.458 1427.84 690.27 1426.99 690.328C1426.14 690.386 1424.89 691.04 1423.21 692.288C1420.89 693.978 1419.04 695.523 1417.67 696.921C1416.29 698.32 1415.04 699.879 1413.91 701.601C1413.5 702.196 1413.03 702.851 1412.51 703.567C1412.05 704.223 1411.64 704.79 1411.27 705.268C1410.96 705.743 1410.81 705.98 1410.81 705.98C1410.83 706.206 1410.51 706.511 1409.85 706.896C1409.26 707.277 1408.73 707.483 1408.28 707.514C1408.05 707.417 1407.72 707.241 1407.31 706.986C1406.95 706.671 1406.69 706.264 1406.54 705.764C1406.01 705.404 1405.56 705.095 1405.21 704.836C1404.84 704.521 1404.64 703.996 1404.59 703.263C1404.56 702.812 1404.57 702.244 1404.64 701.559C1404.76 700.871 1404.93 699.981 1405.14 698.89C1405.37 697.4 1405.64 695.851 1405.92 694.245C1406.2 692.582 1406.47 691.174 1406.74 690.023C1407.05 688.811 1407.29 688.143 1407.45 688.019C1407.45 688.019 1407.54 687.757 1407.73 687.234C1407.92 686.711 1408 686.11 1407.95 685.434C1408.02 684.749 1408.14 684.145 1408.34 683.622C1408.58 683.095 1408.7 682.718 1408.68 682.493C1408.9 682.308 1409.19 681.608 1409.56 680.392C1409.93 679.176 1410.38 677.586 1410.93 675.622C1410.92 675.452 1411.08 674.903 1411.41 673.973C1411.74 672.987 1412.14 671.854 1412.62 670.574C1413.1 669.238 1413.57 667.874 1414.04 666.481C1414.56 665.028 1414.99 663.752 1415.31 662.653C1415.92 661.647 1416.42 660.65 1416.8 659.66C1417.24 658.609 1417.65 657.986 1418.03 657.79C1418.31 657.714 1418.8 657.793 1419.49 658.029C1420.25 658.26 1421.01 658.577 1421.77 658.977C1422.53 659.378 1423.07 659.794 1423.39 660.226C1423.57 660.497 1423.68 660.773 1423.7 661.055C1423.77 661.333 1423.69 661.82 1423.46 662.517C1423.22 663.156 1422.81 664.233 1422.24 665.746C1421.66 667.203 1420.84 669.272 1419.77 671.952C1418.43 675.445 1417.38 678.351 1416.63 680.67C1415.94 682.984 1415.37 684.979 1414.92 686.654C1414.53 688.325 1414.1 689.913 1413.63 691.418L1413.34 693.309L1415.37 690.703C1415.89 690.101 1416.45 689.524 1417.04 688.973C1417.62 688.423 1418.26 687.869 1418.96 687.31C1419.39 686.941 1419.96 686.562 1420.67 686.173C1421.43 685.723 1422.17 685.333 1422.88 685C1423.6 684.667 1424.12 684.461 1424.46 684.382C1424.62 684.313 1425.18 684.162 1426.12 683.927C1427.12 683.631 1428.1 683.45 1429.06 683.384C1430.3 683.299 1431.41 683.676 1432.37 684.516C1433.39 685.296 1434.31 686.282 1435.12 687.472C1435.83 688.614 1436.16 690.121 1436.12 691.995C1436.07 693.811 1435.7 695.396 1435 696.747C1434.73 696.992 1434.47 697.322 1434.22 697.736C1433.96 698.094 1433.84 698.386 1433.85 698.612C1433.82 699.01 1433.37 699.863 1432.5 701.17C1431.62 702.421 1430.74 703.615 1429.85 704.753C1428.91 705.895 1427.75 707.052 1426.35 708.225C1424.96 709.341 1423.55 710.373 1422.15 711.32C1420.79 712.207 1419.62 712.855 1418.62 713.263C1418.18 713.351 1417.54 713.508 1416.7 713.736C1415.86 713.907 1415.22 714.064 1414.78 714.208Z" fill="white"/>
<path d="M1433.52 735.276C1432.29 735.587 1431.45 735.674 1430.98 735.535C1430.52 735.397 1429.88 735.158 1429.06 734.818C1428.41 734.409 1427.94 734.102 1427.64 733.895C1427.34 733.689 1427.13 733.477 1427 733.259C1426.36 732.114 1426.21 731.245 1426.57 730.654C1426.92 730.063 1427.46 729.657 1428.18 729.437C1428.96 729.27 1429.64 729.167 1430.2 729.128C1430.61 729.327 1431.27 729.395 1432.17 729.333C1433.13 729.267 1433.71 729.113 1433.92 728.872C1433.92 728.872 1434.17 728.685 1434.65 728.312C1435.2 727.991 1435.91 727.715 1436.8 727.483C1438.49 726.517 1439.82 725.547 1440.77 724.575C1441.73 723.658 1442.75 722.114 1443.85 719.941C1444.3 719.117 1444.78 718.149 1445.27 717.039C1445.76 715.984 1446.09 714.942 1446.24 713.911C1446.61 712.752 1447.02 711.194 1447.45 709.237C1447.94 707.276 1448.34 705.35 1448.67 703.457C1448.99 701.508 1449.14 700.052 1449.13 699.089C1449.25 695.907 1449.69 692.816 1450.45 689.817C1451.2 686.761 1451.74 683.55 1452.08 680.183C1452.36 679.37 1452.59 678.901 1452.75 678.777C1452.9 678.596 1453.27 678.486 1453.83 678.447C1454.45 678.405 1455.2 678.551 1456.07 678.888C1456.94 679.168 1457.59 679.605 1458.03 680.198C1458.67 681.231 1459.01 682.483 1459.05 683.953C1459.15 685.364 1458.87 686.63 1458.21 687.752C1457.7 688.581 1457.28 689.857 1456.94 691.58C1456.66 693.243 1456.41 695.329 1456.19 697.838C1455.99 699.099 1455.78 700.587 1455.56 702.302C1455.39 703.957 1455.2 705.812 1455.01 707.866C1454.82 708.446 1454.57 709.341 1454.26 710.553C1453.94 711.709 1453.75 712.629 1453.68 713.313C1453.64 713.543 1453.5 714.006 1453.27 714.702C1453.03 715.398 1452.79 716.067 1452.55 716.706C1452.32 717.403 1452.15 717.868 1452.06 718.101C1449.73 723.759 1446.87 727.923 1443.48 730.594C1440.15 733.26 1436.83 734.821 1433.52 735.276ZM1438.97 710.841C1438.35 710.884 1437.68 710.59 1436.96 709.96C1436.29 709.326 1435.83 708.819 1435.58 708.439C1435.31 707.891 1434.85 707.384 1434.2 706.919C1433.54 706.454 1432.96 705.871 1432.46 705.169C1431.96 704.466 1431.78 703.572 1431.94 702.484C1432.11 701.735 1432.37 700.612 1432.72 699.114C1433.07 697.56 1433.49 695.859 1433.99 694.012C1434.48 692.107 1434.97 690.231 1435.47 688.383C1436.02 686.532 1436.53 684.881 1437 683.432C1437.47 681.983 1437.88 680.963 1438.23 680.372C1438.54 679.897 1439.05 679.522 1439.77 679.246C1440.49 678.97 1441.22 678.863 1441.96 678.925C1442.7 678.987 1443.26 679.289 1443.64 679.829C1444.31 680.576 1444.71 681.343 1444.82 682.129C1444.98 682.854 1444.67 684.066 1443.88 685.764C1443.69 686.4 1443.46 687.096 1443.17 687.853C1442.88 688.553 1442.74 689.016 1442.76 689.242C1442.71 689.359 1442.62 689.761 1442.5 690.45C1442.43 691.078 1442.33 691.68 1442.2 692.256C1442.07 692.831 1441.92 693.125 1441.75 693.137C1441.54 693.378 1441.33 693.988 1441.11 694.966C1440.95 695.941 1440.8 697.028 1440.66 698.228C1440.56 699.368 1440.52 700.391 1440.53 701.297C1440.53 702.147 1440.64 702.565 1440.87 702.549C1442.62 702.429 1444.27 701.776 1445.83 700.592C1447.39 699.351 1449.04 697.367 1450.78 694.64L1452.09 702.541C1451.33 702.99 1450.62 703.464 1449.98 703.962C1449.33 704.403 1448.74 704.926 1448.21 705.529C1448.06 705.766 1447.69 706.103 1447.09 706.541C1446.5 706.979 1445.91 707.388 1445.31 707.769C1444.76 708.09 1444.41 708.256 1444.24 708.268C1444.24 708.268 1444.15 708.302 1443.99 708.37C1443.88 708.378 1443.83 708.495 1443.84 708.72C1443.85 708.833 1443.5 709.084 1442.79 709.473C1442.08 709.805 1441.33 710.112 1440.56 710.392C1439.78 710.672 1439.26 710.822 1438.97 710.841Z" fill="white"/>
</g>
<g filter="url(#filter1_d_11_451)">
<path d="M167.777 257.591C167.389 258.319 166.136 258.811 164.018 259.066C161.939 259.467 160.034 258.885 158.302 257.319C156.804 255.535 155.635 253.35 154.797 250.764C153.958 248.179 152.982 244.537 151.869 239.839C151.319 234.522 150.884 227.457 150.563 218.643C150.242 209.83 149.871 200.015 149.451 189.199C149.128 178.2 148.746 166.983 148.305 155.548C148.163 150.121 147.964 145.569 147.707 141.891C147.586 138.176 147.428 135.408 147.231 133.587C147.132 131.584 147.082 130.582 147.082 130.582C147.024 130.91 146.898 131.256 146.704 131.62C146.646 131.948 146.588 132.276 146.53 132.604C146.472 132.932 146.415 133.259 146.357 133.587C146.357 133.587 146.221 134.17 145.95 135.335C145.816 136.464 145.332 138.468 144.5 141.345C143.88 143.384 143.407 145.697 143.079 148.283C142.752 150.869 141.939 154.365 140.642 158.772C139.637 163.725 138.536 169.407 137.338 175.817C136.14 182.226 135.039 187.362 134.032 191.222C133.51 193.08 132.996 194.701 132.493 196.085C132.125 197.432 131.903 198.506 131.826 199.308C131.711 201.056 131.354 203.259 130.755 205.918C130.155 208.577 129.332 211.217 128.286 213.839C127.821 215.369 127.143 217.19 126.251 219.303C125.496 221.379 124.837 223.273 124.276 224.984C123.675 226.55 123.374 227.334 123.374 227.334C123.337 228.28 122.823 229.901 121.835 232.196C120.846 234.49 119.576 237.094 118.025 240.008C116.57 242.74 115.009 245.344 113.34 247.821C109.673 253.175 106.412 256.781 103.558 258.639C100.839 260.46 97.0393 260.151 92.1586 257.712C89.7661 255.855 87.7136 253.907 86.0012 251.868C84.2496 249.683 82.8079 246.478 81.676 242.254C80.544 238.029 79.6432 231.947 78.9735 224.008C78.6374 218.946 78.2913 213.574 77.9351 207.893C77.7149 202.175 77.5532 196.676 77.4501 191.395C77.3079 185.969 77.2249 181.307 77.2011 177.41C77.2743 173.331 77.3197 170.509 77.3373 168.943C76.7695 165.192 76.3301 163.28 76.0191 163.207C75.669 162.989 75.2037 163.972 74.6231 166.157C74.1005 168.015 73.2303 171.839 72.0125 177.63C70.7946 183.42 69.471 190.176 68.0416 197.897C66.7481 205.582 65.5227 213.248 64.3653 220.897C61.7558 233.462 59.5424 243.969 57.7251 252.418C55.9079 260.868 54.3802 267.679 53.1423 272.85C51.8653 277.876 50.8395 281.664 50.065 284.213C49.4656 286.872 48.943 288.73 48.4972 289.786C48.2264 290.951 47.994 291.716 47.8001 292.08C45.7211 292.481 43.6799 291.935 41.6765 290.442C39.6731 288.95 37.8442 287.02 36.1896 284.653C35.5273 283.269 34.9134 281.794 34.3481 280.228C33.7827 278.662 33.4503 276.878 33.3509 274.875C33.3485 272.689 33.579 270.286 34.0424 267.664C34.7956 263.402 35.6368 259.742 36.5662 256.683C37.4956 253.623 38.0862 251.748 38.3381 251.056C38.7449 249.854 38.9961 248.616 39.0918 247.341C39.1876 246.066 39.1668 244.901 39.0296 243.845C39.4754 242.788 40.0075 240.694 40.6258 237.562C41.3802 234.394 42.076 231.006 42.7133 227.401C43.2938 225.216 44.0872 222.193 45.0935 218.332C46.0607 214.326 47.1053 210.065 48.2274 205.549C49.3105 200.887 50.2191 196.662 50.9533 192.874C53.8537 179.763 56.1546 169.31 57.856 161.516C59.5184 153.577 60.8439 148.46 61.8324 146.165C62.5893 145.182 63.0344 143.579 63.168 141.358C63.3985 138.954 63.6491 137.169 63.9199 136.004C64.7309 131.415 65.7372 127.554 66.9385 124.422C68.2369 121.108 69.6341 119.25 71.13 118.849C72.218 118.558 73.6951 118.63 75.5613 119.067C77.5634 119.467 79.5952 120.25 81.6565 121.415C83.6599 122.908 85.7029 125.093 87.7856 127.97C89.9653 130.664 91.3302 134.67 91.8803 139.987C92.3688 142.354 92.79 145.286 93.1437 148.782C93.4584 152.133 93.7732 155.483 94.0879 158.834C94.4026 162.184 94.5807 165.025 94.6222 167.356C95.2907 174.202 95.7451 180.794 95.9854 187.131C96.3227 193.286 96.6109 198.985 96.85 204.23C97.0892 209.474 97.3761 214.081 97.711 218.051C98.0068 221.875 98.331 224.988 98.6835 227.392C99.172 229.759 99.8538 231.216 100.729 231.762C101.176 231.798 101.681 231.507 102.244 230.888C102.904 230.086 103.36 229.34 103.611 228.648C104.115 227.264 104.551 225.898 104.919 224.55C105.286 223.203 105.78 221.509 106.4 219.47C107.717 215.682 109.024 211.585 110.321 207.178C111.715 202.589 113.283 197.016 115.025 190.461C116.864 183.723 118.963 175.51 121.323 165.822C123.644 155.988 126.438 143.842 129.707 129.383C131.468 123.447 133.094 117.547 134.584 111.683C136.074 105.819 137.604 101.194 139.174 97.8065C140.59 94.9292 142.891 93.4539 146.078 93.3805C149.401 93.2708 152.745 94.3264 156.11 96.5474C159.474 98.7685 161.859 101.955 163.262 106.106C163.945 108.109 164.513 111.86 164.966 117.36C165.516 122.677 165.902 128.74 166.123 135.551C166.345 142.361 166.323 149.08 166.059 155.709C166.314 158.294 166.512 161.754 166.653 166.088C166.794 170.422 166.887 174.847 166.931 179.363C166.975 183.879 166.969 187.939 166.915 191.545C167.29 196.753 167.528 200.905 167.629 204C167.865 207.059 168.491 210.483 169.506 214.27C168.907 216.929 168.988 220.498 169.751 224.977C170.514 229.457 171.52 234.027 172.769 238.689C173.748 244.515 173.665 248.831 172.522 251.636C171.514 254.404 170.719 255.788 170.136 255.788C168.931 255.642 168.144 256.243 167.777 257.591Z" fill="white"/>
<path d="M225.997 230.281C224.247 229.189 222.632 227.514 221.152 225.256C219.634 222.853 218.018 220.085 216.304 216.953C215.72 215.861 215.232 214.586 214.842 213.129C214.588 211.636 214.275 210.471 213.905 209.633C213.771 210.762 213.442 212.256 212.919 214.113C212.533 215.934 212.029 217.318 211.408 218.265C211.02 218.993 210.108 220.487 208.673 222.745C207.198 224.858 205.646 226.679 204.015 228.209C200.347 232.47 196.725 235.002 193.15 235.804C189.672 236.423 186.173 235.331 182.652 232.528C179.969 231.217 177.557 229.287 175.416 226.738C173.275 224.189 172.067 220.766 171.79 216.468C170.695 211.297 170.048 206.162 169.848 201.064C169.609 195.819 170.097 188.663 171.311 179.594C172.566 172.856 173.493 167.612 174.092 163.861C174.69 160.109 175.115 157.888 175.367 157.196C177.212 155.921 179.747 155.32 182.973 155.392C186.16 155.319 188.163 156.265 188.981 158.232C190.188 159.47 190.929 162.237 191.206 166.535C191.444 170.687 191.022 175.64 189.94 181.394C189.364 186.857 188.816 192.156 188.297 197.291C187.914 202.39 187.948 206.596 188.398 209.91C188.985 213.188 190.328 214.936 192.427 215.154C193.846 215.555 195.595 215.008 197.672 213.514C199.886 211.985 202.04 208.597 204.133 203.353C206.226 198.108 207.839 190.259 208.974 179.807C209.282 176.602 209.415 173.834 209.373 171.503C209.293 169.027 208.949 166.386 208.344 163.582C207.603 161.907 207.524 159.977 208.104 157.792C208.821 155.57 209.858 153.731 211.217 152.274C211.566 151.4 212.138 150.544 212.934 149.706C213.691 148.722 214.303 148.558 214.77 149.214L217.976 148.121C218.48 147.829 219.249 148.248 220.28 149.377C221.311 150.506 222.245 151.27 223.081 151.671C224.928 152.581 226.369 155.239 227.404 159.646C228.439 164.052 228.447 170.608 227.426 179.312C226.443 185.977 225.885 190.967 225.753 194.281C225.756 197.558 226.08 200.672 226.725 203.622C227.428 206.244 228.237 208.447 229.152 210.232C230.028 211.871 231.74 213.363 234.288 214.711C236.057 215.329 237.341 216.859 238.141 219.299C239.037 221.557 239.652 223.578 239.984 225.362C240.063 226.746 239.21 227.912 237.423 228.859C235.811 229.915 233.878 230.589 231.624 230.881C229.506 231.136 227.63 230.936 225.997 230.281Z" fill="white"/>
<path d="M248.358 227.334C245.969 228.755 243.443 228.573 240.778 226.789C238.153 225.15 235.846 222.255 233.859 218.104C231.873 213.953 230.701 209.036 230.345 203.355C230.556 201.425 230.651 199.604 230.63 197.892C230.57 196.035 230.403 194.596 230.13 193.576C230.011 192.047 229.989 189.789 230.064 186.802C230.099 183.67 230.183 180.447 230.315 177.133C230.448 173.819 230.609 170.887 230.801 168.338C231.089 165.606 231.291 163.913 231.407 163.257C231.951 163.111 232.291 162.474 232.425 161.345C232.56 160.216 232.491 159.142 232.218 158.122C231.906 156.957 231.758 155.591 231.776 154.025C231.93 152.422 232.2 151.257 232.588 150.529C232.393 149.8 232.314 148.963 232.352 148.016C232.487 146.887 232.476 146.031 232.32 145.448C232.164 144.865 232.144 144.246 232.26 143.591C232.512 142.899 232.559 142.261 232.403 141.679C232.848 139.53 233.272 136.216 233.675 131.736C234.175 127.074 234.626 121.957 235.028 116.385C235.565 110.777 235.987 105.277 236.292 99.8872C236.597 94.4972 236.776 89.9994 236.83 86.3939C236.982 82.6063 236.96 80.3483 236.764 79.6199C236.452 78.4546 236.567 77.2527 237.11 76.0144C237.653 74.7761 238.468 74.0111 239.556 73.7196C239.847 73.1733 240.721 72.6268 242.178 72.0803C243.596 71.3881 244.577 70.9692 245.121 70.8234C245.121 70.8234 245.471 71.0419 246.171 71.4788C246.871 71.9157 247.921 72.5711 249.322 73.4449C250.683 74.1731 252.015 75.0651 253.318 76.1211C254.758 77.1406 255.711 78.5244 256.18 80.2724C256.687 82.1661 256.903 84.0599 256.828 85.9537C256.888 87.8111 256.716 90.4333 256.312 93.8203C255.868 97.0617 255.135 101.942 254.113 108.461C253.805 111.666 253.391 114.744 252.87 117.694C252.309 120.498 252.107 122.191 252.263 122.774C252.419 123.357 252.381 124.304 252.15 125.615C252.054 126.89 251.968 128.474 251.893 130.368C251.661 131.679 251.381 133.627 251.054 136.213C250.687 138.653 250.311 141.33 249.926 144.244C249.638 146.975 249.407 149.379 249.235 151.455C249.023 153.385 248.956 154.496 249.034 154.787C249.19 155.37 249.279 155.971 249.299 156.59C249.455 157.172 249.339 157.828 248.951 158.556C248.407 158.702 248.184 159.23 248.282 160.141C248.477 160.869 248.575 161.233 248.575 161.233C248.965 162.69 248.912 166.842 248.414 173.689C248.385 182.284 248.316 190.186 248.208 197.397C248.235 204.572 248.795 210.199 249.888 214.277C250.825 217.774 251.003 220.614 250.423 222.799C249.978 224.948 249.29 226.46 248.358 227.334Z" fill="white"/>
<path d="M285.954 216.089C283.894 216.017 281.717 215.507 279.423 214.56C277.129 213.614 274.708 212.467 272.16 211.12C269.904 209.227 268.182 207.424 266.994 205.713C265.768 203.855 264.736 201.634 263.897 199.048C263.155 196.281 262.219 192.785 261.087 188.56C260.618 186.812 260.227 184.263 259.912 180.912C259.733 177.525 259.515 173.993 259.259 170.314C259.138 166.6 259.066 163.34 259.044 160.536C258.982 157.586 258.902 155.656 258.804 154.745C258.704 152.742 257.732 151.832 255.886 152.014C254.04 152.197 252.048 152.652 249.911 153.381C247.871 153.928 246.453 154.074 245.656 153.819C245.073 153.819 244.606 153.163 244.254 151.852C243.864 150.396 243.669 149.667 243.669 149.667C243.513 149.085 243.143 148.793 242.56 148.793C241.938 148.648 241.325 148.266 240.722 147.646C240.294 147.137 240.341 145.953 240.864 144.096C241.387 142.238 242.357 140.963 243.775 140.271C244.921 139.652 246.698 138.941 249.107 138.14C251.477 137.193 253.788 136.027 256.041 134.642C258.391 133.076 260.011 131.237 260.903 129.124C261.268 125.591 261.711 121.804 262.231 117.761C262.712 113.573 263.262 109.913 263.881 106.781C264.46 103.503 264.924 101.427 265.273 100.553C267.233 98.6222 269.477 97.4747 272.003 97.1101C274.49 96.5998 276.726 97.3278 278.71 99.2942C279.663 100.132 280.402 100.714 280.927 101.042C281.589 101.333 281.968 101.934 282.066 102.844C282.301 103.719 282.186 105.467 281.722 108.089C281.356 110.529 280.641 114.39 279.578 119.671C279.289 121.309 279.028 122.784 278.796 124.096C278.525 125.261 278.39 125.844 278.39 125.844C278.973 125.844 279.809 125.698 280.897 125.406C281.985 125.115 283.325 124.678 284.918 124.095C286.336 123.402 287.909 122.747 289.638 122.127C291.328 121.362 292.892 120.943 294.33 120.87C297.458 120.032 300.024 120.359 302.027 121.852C304.031 123.345 305.491 125.53 306.407 128.407C307.109 129.936 306.935 131.466 305.888 132.996C304.84 134.526 302.48 135.782 298.808 136.766C297.584 137.094 295.836 137.641 293.563 138.406C291.29 139.171 288.949 139.954 286.54 140.756C284.131 141.558 282.082 142.341 280.392 143.106C278.799 143.689 278.041 144.126 278.119 144.418C277.79 144.818 277.422 146.166 277.016 148.46C276.708 150.573 276.448 153.14 276.238 156.163C276.164 159.149 276.118 161.972 276.102 164.63C276.477 169.838 277.085 174.828 277.926 179.598C278.767 184.369 279.792 188.466 281.001 191.889C282.306 195.13 283.766 197.315 285.381 198.444C286.956 199.427 288.792 198.935 290.889 196.968C293.082 194.819 295.013 192.506 296.682 190.03C298.544 187.189 300.477 185.968 302.479 186.368C304.442 186.623 305.959 187.934 307.031 190.301C308.199 192.486 308.27 195.199 307.244 198.441C306.354 201.646 304.666 204.596 302.182 207.291C299.697 209.987 296.989 212.118 294.056 213.684C291.162 215.396 288.462 216.198 285.954 216.089Z" fill="white"/>
<path d="M324.723 204.062C321.459 204.936 318.115 203.881 314.692 200.895C311.365 197.727 308.727 193.594 306.778 188.495C306.601 187.294 306.288 185.582 305.839 183.36C305.525 181.102 305.192 178.772 304.84 176.368C304.642 173.455 304.434 169.685 304.215 165.06C303.996 160.435 303.845 155.791 303.762 151.13C303.64 146.323 303.558 142.207 303.515 138.784C303.433 135.215 303.382 133.121 303.362 132.501C303.632 130.243 305.331 129.242 308.46 129.496C311.589 129.751 314.623 131.28 317.561 134.083C318.689 135.03 319.536 136.287 320.101 137.852C320.802 139.382 321.223 141.767 321.362 145.009C321.638 148.213 321.76 153.021 321.729 159.431C321.794 165.658 321.906 170.702 322.066 174.563C322.323 178.241 323.046 182.028 324.236 185.925C325.488 192.772 326.173 197.506 326.293 200.128C326.373 202.605 325.85 203.916 324.723 204.062ZM319.193 108.353C318.766 108.936 318.281 109.3 317.737 109.446C317.29 109.41 316.425 109.173 315.142 108.736C314.151 108.846 312.751 108.518 310.943 107.754C309.231 106.807 307.656 105.824 306.217 104.804C304.914 103.748 304.223 103.075 304.145 102.783C303.619 101.363 303.062 99.0142 302.475 95.7366C302.025 92.4225 301.972 89.2358 302.319 86.1766C302.762 82.9352 303.984 80.9684 305.985 80.2761C306.529 80.1304 307.763 80.112 309.687 80.2209C311.747 80.2934 313.915 80.4934 316.189 80.8208C317.862 82.7143 319.643 85.2816 321.532 88.5226C323.421 91.7636 324.406 95.1686 324.488 98.7377C324.667 102.125 322.902 105.33 319.193 108.353Z" fill="white"/>
<path d="M339.476 257.252C338.407 257.07 336.618 256.378 334.11 255.177C331.737 253.939 329.462 252.519 327.283 250.917C325.28 249.424 324.161 248.241 323.927 247.367C323.693 246.493 323.408 244.071 323.074 240.101C322.778 236.277 322.452 231.524 322.095 225.843C321.914 220.271 321.762 214.535 321.639 208.635C321.691 202.845 321.899 197.637 322.263 193.011C322.339 192.21 322.579 189.57 322.982 185.09C323.482 180.428 323.68 174.911 323.576 168.537C323.649 164.458 323.926 159.779 324.406 154.498C324.885 149.217 325.433 143.918 326.049 138.601C326.626 133.138 327.019 128.348 327.228 124.233C327.437 120.118 327.783 115.966 328.264 111.778C328.706 107.444 328.917 104.967 328.897 104.348C328.934 103.401 329.487 102.472 330.555 101.562C331.72 100.469 332.924 99.5218 334.167 98.7204C335.371 97.7733 336.157 97.1723 336.526 96.9173C338.779 95.533 341.179 96.0607 343.728 98.5004C344.759 99.6292 345.383 101.414 345.6 103.854C345.913 106.112 345.877 108.697 345.492 111.611L345.235 116.364L352.11 112.648C353.334 112.32 355.054 111.937 357.269 111.5C359.484 111.062 361.631 110.643 363.71 110.242C365.925 109.805 367.479 109.623 368.373 109.695C371.676 108.966 374.096 109.021 375.632 109.858C377.304 110.659 378.87 111.879 380.33 113.517C381.205 114.064 382.294 114.865 383.597 115.921C384.862 116.831 385.718 117.851 386.166 118.979C387.374 121.31 387.95 124.278 387.896 127.884C387.978 131.453 387.603 135.222 386.772 139.192C386.038 142.98 384.905 146.64 383.373 150.173C381.939 153.524 380.397 156.201 378.748 158.204C377.544 159.151 376.495 160.135 375.602 161.154C374.671 162.029 374.205 162.466 374.205 162.466C374.264 163.23 373.168 164.851 370.916 167.328C368.801 169.769 366.189 172.264 363.083 174.814C360.073 177.181 357.267 178.948 354.664 180.114C353.751 180.515 352.43 181.025 350.701 181.644C348.972 182.263 347.554 182.409 346.446 182.082C344.872 182.191 343.813 182.319 343.269 182.465C342.725 182.61 342.531 182.975 342.687 183.557C342.629 183.885 342.302 186.471 341.704 191.315C341.107 196.159 340.891 202.696 341.056 210.927C340.736 220.068 340.482 227.552 340.294 233.379C340.146 239.352 340.005 243.995 339.873 247.309C339.876 250.587 339.85 252.936 339.793 254.356C339.776 255.923 339.67 256.888 339.476 257.252ZM342.431 163.017C343.073 163.782 344.579 163.69 346.949 162.743C349.28 161.65 351.833 160.029 354.61 157.88C357.387 155.731 359.765 153.454 361.744 151.05C363.821 148.464 364.79 146.097 364.651 143.948C366.668 139.505 368.073 136.318 368.868 134.387C369.623 132.311 369.184 130.946 367.551 130.29C365.431 128.361 362.962 127.851 360.145 128.762C357.464 129.637 353.6 132.623 348.553 137.723C346.475 139.216 345.126 140.437 344.505 141.384C343.845 142.185 343.419 143.314 343.226 144.771C343.17 146.191 342.92 148.522 342.476 151.763C342.111 155.296 341.939 157.918 341.96 159.63C341.982 161.342 342.138 162.471 342.431 163.017Z" fill="white"/>
<path d="M404.009 185.627C401.62 187.048 399.094 186.866 396.429 185.082C393.804 183.444 391.497 180.549 389.51 176.397C387.523 172.246 386.352 167.33 385.996 161.648C386.207 159.718 386.302 157.897 386.281 156.185C386.221 154.328 386.054 152.889 385.781 151.87C385.662 150.34 385.64 148.082 385.715 145.096C385.75 141.964 385.834 138.741 385.966 135.427C386.098 132.112 386.26 129.181 386.452 126.631C386.74 123.9 386.942 122.206 387.058 121.551C387.602 121.405 387.942 120.768 388.076 119.639C388.211 118.509 388.142 117.435 387.869 116.415C387.556 115.25 387.409 113.884 387.427 112.318C387.58 110.716 387.851 109.55 388.239 108.822C388.044 108.094 387.965 107.256 388.003 106.309C388.138 105.18 388.127 104.324 387.971 103.742C387.815 103.159 387.795 102.54 387.911 101.884C388.163 101.192 388.21 100.555 388.054 99.9722C388.499 97.8234 388.923 94.5092 389.326 90.0296C389.826 85.3679 390.277 80.2509 390.679 74.6787C391.216 69.0701 391.638 63.5708 391.943 58.1807C392.247 52.7906 392.427 48.2928 392.481 44.6873C392.632 40.8997 392.611 38.6417 392.415 37.9134C392.103 36.748 392.218 35.5462 392.761 34.3079C393.304 33.0695 394.119 32.3046 395.207 32.013C395.498 31.4667 396.372 30.9203 397.829 30.3738C399.247 29.6816 400.228 29.2626 400.772 29.1169C400.772 29.1169 401.122 29.3353 401.822 29.7722C402.522 30.2092 403.572 30.8645 404.973 31.7384C406.334 32.4665 407.666 33.3586 408.969 34.4146C410.409 35.4341 411.362 36.8178 411.831 38.5659C412.338 40.4596 412.554 42.3534 412.478 44.2472C412.539 46.1045 412.367 48.7267 411.963 52.1138C411.519 55.3551 410.786 60.2354 409.764 66.7546C409.456 69.9595 409.042 73.037 408.521 75.987C407.96 78.7914 407.758 80.4849 407.914 81.0676C408.07 81.6503 408.032 82.5972 407.801 83.9083C407.705 85.183 407.619 86.7672 407.544 88.661C407.312 89.9721 407.032 91.9206 406.705 94.5064C406.338 96.9466 405.962 99.6234 405.577 102.537C405.289 105.268 405.058 107.672 404.885 109.748C404.674 111.678 404.607 112.789 404.685 113.08C404.841 113.663 404.929 114.264 404.95 114.883C405.106 115.466 404.99 116.121 404.602 116.85C404.058 116.996 403.835 117.524 403.933 118.434C404.128 119.163 404.226 119.527 404.226 119.527C404.616 120.983 404.563 125.135 404.065 131.982C404.036 140.577 403.967 148.48 403.859 155.691C403.886 162.865 404.446 168.492 405.539 172.571C406.476 176.067 406.654 178.908 406.074 181.093C405.629 183.242 404.941 184.753 404.009 185.627Z" fill="white"/>
<path d="M425.716 173.019C424.202 173.894 422.229 173.876 419.799 172.966C417.368 172.056 415.045 170.727 412.827 168.979C410.61 167.231 409.063 165.538 408.186 163.899C406.823 160.986 405.963 157.235 405.608 152.646C405.35 147.875 405.646 142.722 406.495 137.186C407.304 131.504 408.697 125.823 410.673 120.141C412.61 114.314 415.092 108.887 418.118 103.861C421.144 98.8343 424.744 94.5909 428.918 91.1304C430.646 89.4185 431.879 88.3075 432.617 87.7975C433.316 87.1419 434.132 86.9232 435.065 87.1416C435.959 87.2143 437.582 87.56 439.934 88.1788C441.994 88.2513 444.093 88.4695 446.232 88.8333C448.467 89.0151 450.625 89.998 452.706 91.7822C454.38 93.6758 455.781 95.6422 456.911 97.6815C458.04 99.7208 459.18 102.07 460.329 104.728C462.393 108.078 463.445 110.373 463.485 111.611C463.487 112.703 463.293 113.614 462.906 114.342C462.208 116.091 462.131 116.892 462.675 116.746C462.675 116.746 462.685 117.056 462.705 117.675C462.822 118.112 462.746 118.913 462.475 120.078C462.381 123.538 462.453 126.798 462.69 129.857C463.023 132.734 463.755 135.192 464.884 137.231C466.831 140.145 468.767 141.656 470.691 141.765C472.751 141.837 474.847 139.87 476.981 135.864C478.164 134.298 479.669 133.114 481.495 132.312C483.282 131.365 484.331 131.474 484.644 132.639C484.644 132.639 484.906 132.803 485.431 133.131C485.917 133.313 486.432 133.331 486.976 133.185C487.656 133.003 488.124 133.659 488.378 135.152C488.593 136.499 488.731 138.102 488.791 139.959C488.852 141.816 488.698 143.419 488.33 144.766C486.876 147.498 486.246 149.228 486.441 149.956C486.441 149.956 486.248 150.321 485.86 151.049C485.569 151.595 485.016 152.524 484.201 153.835C482.183 156.094 479.269 157.733 475.461 158.753C471.789 159.737 468.719 159.701 466.25 158.646C463.78 157.59 461.213 156.17 458.549 154.386C456.02 152.565 454.211 150.708 453.12 148.814L451.515 146.903L446.711 152.64C445.645 154.643 444.889 156.172 444.443 157.229C443.958 158.139 443.522 158.959 443.134 159.687C442.882 160.379 442.543 161.017 442.116 161.599C441.825 162.146 441.407 162.492 440.863 162.637C440.319 162.783 439.843 162.911 439.435 163.02C439.027 163.129 438.823 163.184 438.823 163.184C438.98 163.767 438.242 164.823 436.611 166.353C434.942 167.737 433.048 169.103 430.932 170.451C428.815 171.799 427.076 172.655 425.716 173.019ZM425.082 153.517C425.898 153.298 426.986 152.461 428.344 151.004C429.8 149.364 431.333 147.47 432.944 145.321C434.555 143.172 435.961 141.078 437.164 139.038C438.502 136.962 439.443 135.305 439.986 134.067C440.374 133.338 440.732 132.228 441.061 130.734C441.525 129.205 442.097 127.802 442.776 126.528C444.889 121.902 446.061 118.387 446.291 115.984C446.483 113.434 445.479 111.049 443.281 108.828C442.307 107.371 441.393 106.679 440.538 106.752C439.683 106.825 438.12 107.791 435.848 109.648C434.489 111.105 433.17 113.254 431.891 116.095C430.611 118.936 429.342 122.087 428.083 125.547C426.959 128.97 425.991 132.43 425.179 135.927C424.367 139.423 423.748 142.555 423.324 145.323C423.036 148.054 423.087 150.149 423.477 151.605C423.633 152.188 423.906 152.661 424.295 153.025C424.82 153.353 425.082 153.517 425.082 153.517Z" fill="white"/>
<path d="M492.397 219.555C489.561 220.94 487.541 221.559 486.336 221.414C485.131 221.268 483.44 220.941 481.262 220.431C479.454 219.667 478.132 219.084 477.296 218.684C476.46 218.283 475.828 217.828 475.4 217.318C473.22 214.624 472.411 212.42 472.973 210.709C473.534 208.997 474.641 207.686 476.291 206.775C478.117 205.973 479.71 205.39 481.07 205.026C482.178 205.354 483.82 205.226 485.996 204.643C488.308 204.023 489.658 203.349 490.046 202.621C490.046 202.621 490.541 202.02 491.531 200.818C492.696 199.725 494.307 198.669 496.366 197.649C499.997 194.334 502.724 191.183 504.547 188.197C506.41 185.356 508.115 180.839 509.662 174.648C510.34 172.281 510.988 169.531 511.606 166.399C512.264 163.412 512.513 160.535 512.354 157.767C512.662 154.562 512.832 150.301 512.865 144.984C513.034 139.63 513.018 134.404 512.818 129.306C512.579 124.061 512.196 120.183 511.668 117.67C510.298 109.294 509.754 101.009 510.037 92.8142C510.28 84.4742 509.93 75.8247 508.987 66.8657C509.257 64.6077 509.556 63.2784 509.886 62.8777C510.177 62.3314 511.003 61.876 512.363 61.5116C513.859 61.1108 515.763 61.1469 518.076 61.62C520.351 61.9474 522.178 62.7847 523.56 64.132C525.661 66.5353 527.152 69.6489 528.03 73.4728C529.006 77.1146 528.981 80.5562 527.954 83.7976C527.141 86.2014 526.776 89.7341 526.859 94.3958C527.039 98.8753 527.511 104.447 528.277 111.112C528.455 114.499 528.722 118.487 529.077 123.075C529.529 127.482 530.05 132.417 530.639 137.88C530.485 139.482 530.342 141.94 530.21 145.255C530.039 148.423 530.051 150.918 530.248 152.739C530.268 153.358 530.172 154.632 529.96 156.563C529.749 158.493 529.518 160.35 529.267 162.135C529.056 164.065 528.892 165.358 528.776 166.014C526.034 181.893 521.219 194.112 514.329 202.672C507.576 211.195 500.265 216.823 492.397 219.555ZM492.964 153.127C491.468 153.528 489.67 153.073 487.569 151.762C485.605 150.415 484.214 149.304 483.397 148.43C482.463 147.119 481.072 146.009 479.225 145.099C477.377 144.188 475.656 142.932 474.061 141.33C472.465 139.728 471.569 137.47 471.371 134.557C471.408 132.517 471.462 129.458 471.536 125.379C471.57 121.154 471.71 116.511 471.957 111.449C472.165 106.241 472.392 101.105 472.639 96.0431C473.022 90.9444 473.406 86.392 473.79 82.3858C474.174 78.3796 474.647 75.5207 475.209 73.8089C475.713 72.4249 476.77 71.2047 478.382 70.1483C479.994 69.0919 481.723 68.4725 483.569 68.2901C485.415 68.1077 486.941 68.6355 488.148 69.8736C490.19 71.5121 491.552 73.3329 492.235 75.3358C493.014 77.1566 492.882 80.4708 491.838 85.2783C491.723 87.0264 491.512 88.9567 491.203 91.069C490.856 93.0357 490.76 94.3104 490.916 94.8931C490.858 95.2209 490.859 96.3134 490.92 98.1708C491.077 99.846 491.147 101.467 491.129 103.033C491.111 104.599 490.899 105.436 490.491 105.546C490.103 106.274 489.901 107.968 489.884 110.626C490.004 113.248 490.201 116.162 490.477 119.367C490.85 122.389 491.28 125.084 491.769 127.452C492.218 129.673 492.715 130.711 493.259 130.565C497.475 129.436 501.184 126.958 504.386 123.134C507.55 119.164 510.546 113.209 513.374 105.269L520.713 125.317C519.083 126.846 517.608 128.413 516.288 130.015C514.929 131.472 513.765 133.111 512.795 134.932C512.543 135.624 511.806 136.681 510.583 138.101C509.361 139.522 508.118 140.869 506.856 142.144C505.692 143.237 504.905 143.838 504.497 143.947C504.497 143.947 504.313 144.075 503.944 144.33C503.672 144.403 503.614 144.731 503.77 145.313C503.848 145.605 503.12 146.424 501.586 147.772C500.014 148.974 498.353 150.121 496.606 151.214C494.858 152.307 493.644 152.945 492.964 153.127Z" fill="white"/>
<path d="M575.285 132.474C571.869 136.044 567.907 138.667 563.4 140.343C558.99 141.836 554.599 142.311 550.225 141.765C545.813 141.074 541.934 139.381 538.588 136.686C536.721 135.157 534.629 132.517 532.312 128.766C529.956 124.87 528.23 119.243 527.133 111.887C526.154 104.967 526.243 97.6834 527.4 90.0352C528.694 82.3506 530.882 75.2849 533.964 68.8383C537.047 62.3916 540.987 57.5108 545.783 54.1959C547.492 52.9574 549.259 51.9374 551.085 51.1359C553.008 50.1523 555.641 49.3688 558.983 48.7856C562.228 48.3845 565.25 48.5115 568.049 49.1666C570.809 49.676 572.929 50.5133 574.407 51.6785C577.207 53.4262 579.24 55.3014 580.506 57.3043C581.771 59.3071 582.609 61.3465 583.02 63.4223C583.589 68.266 582.963 73.82 581.144 80.0843C579.46 86.3123 576.113 91.5025 571.104 95.6551C569.065 97.2943 566.521 98.6786 563.471 99.8081C560.421 100.938 556.02 101.648 550.268 101.941C546.809 102.087 544.731 103.034 544.033 104.782C543.471 106.494 543.824 109.444 545.092 113.632C546.067 116.181 547.235 118.366 548.598 120.187C550.057 121.826 552.108 122.681 554.752 122.753C558.036 122.498 560.299 121.97 561.542 121.168C562.746 120.221 564.231 118.964 565.998 117.398C566.891 116.378 567.696 115.304 568.414 114.175C569.268 113.009 570.053 111.862 570.771 110.733C571.625 109.567 572.333 108.675 572.896 108.056C573.42 107.291 574.003 106.744 574.644 106.416C575.284 106.088 575.945 105.833 576.625 105.651C578.16 105.396 579.822 105.887 581.611 107.125C583.401 108.363 584.695 109.656 585.493 111.003C585.805 112.169 585.574 114.026 584.8 116.576C583.986 118.979 582.736 121.656 581.048 124.607C579.458 127.375 577.537 129.997 575.285 132.474ZM559.577 84.458C560.412 83.7659 561.498 82.3818 562.837 80.3057C564.312 78.1932 565.563 76.0625 566.59 73.9136C567.579 71.619 567.937 69.9619 567.663 68.9422C567.234 67.3398 565.843 66.2293 563.491 65.6105C561.275 64.9553 558.7 65.411 555.767 66.9774C554.758 67.5603 553.68 68.7077 552.536 70.4196C551.391 72.1314 550.305 74.0618 549.277 76.2107C548.211 78.2139 547.348 80.1625 546.689 82.0564C545.992 83.8046 545.556 85.1704 545.382 86.1537C546.121 86.7363 547.365 87.0275 549.114 87.0272C550.863 87.0269 552.69 86.7717 554.594 86.2616C556.634 85.7149 558.295 85.1138 559.577 84.458Z" fill="white"/>
<path d="M594.138 128.593C593.186 128.848 591.699 128.466 589.677 127.447C587.79 126.391 586.555 125.317 585.971 124.224C585.251 123.168 584.802 121.493 584.624 119.199C584.544 116.722 584.57 113.827 584.702 110.513C584.502 105.414 584.313 101.718 584.136 99.4233C583.958 97.1289 583.859 95.1259 583.837 93.4142C583.816 91.7025 583.736 89.226 583.596 85.9847C583.904 83.8724 584.028 81.8875 583.968 80.0301C584.005 77.9907 584.041 75.9512 584.078 73.9117C584.25 71.8358 584.491 69.7417 584.799 67.6293C584.737 63.5868 584.936 59.7081 585.399 55.9933C585.958 52.0964 586.605 48.8003 587.341 46.1052C587.495 45.5953 587.893 44.6302 588.532 43.2097C589.172 41.7893 589.764 41.0062 590.308 40.8604C591.084 39.4035 592.482 38.6385 594.503 38.5653C596.485 38.3465 598.312 38.6376 599.985 39.4385C602.124 40.895 603.613 42.916 604.452 45.5016C605.387 47.9051 605.372 51.6563 604.406 56.7551C603.984 61.7082 603.376 65.6962 602.583 68.7191C601.886 71.5599 601.307 74.8377 600.845 78.5525C601.716 75.8209 602.908 72.9254 604.421 69.866C605.933 66.8065 607.106 64.3845 607.94 62.5998C609.161 60.0867 610.364 58.0471 611.548 56.4809C612.828 54.7325 614.575 52.5471 616.788 49.9246C618.631 47.557 620.514 45.3352 622.435 43.259C624.493 41.1464 627.3 39.9259 630.856 39.5976C632.177 39.0875 633.8 39.4332 635.725 40.6347C637.787 41.7998 639.577 43.5841 641.095 45.9875C642.711 48.2088 643.433 50.9037 643.261 54.0722C639.938 54.182 637.189 55.0747 635.015 56.7503C632.801 58.2803 630.986 59.9376 629.569 61.7224C628.288 63.4707 627.27 64.8366 626.513 65.82C625.387 67.0584 624.135 68.6428 622.758 70.5733C621.341 72.358 619.847 74.3977 618.275 76.6924C616.665 78.8414 614.977 81.2453 613.211 83.9042C610.728 87.6921 608.963 90.8973 607.916 93.5196C606.87 96.142 606.202 98.8189 605.914 101.55C605.683 103.954 605.366 106.849 604.962 110.236C604.557 113.624 604.143 116.701 603.719 119.469C603.255 122.091 602.762 123.785 602.238 124.55C601.948 126.189 600.735 127.372 598.598 128.101C596.597 128.793 595.11 128.957 594.138 128.593Z" fill="white"/>
</g>
<g filter="url(#filter2_d_11_451)">
<path d="M1510.05 865.745V769.78H1527.37V804.523C1533.24 798.936 1540.8 795.837 1548.78 795.837C1567.51 795.837 1584.13 810.11 1584.13 831.613C1584.13 853.116 1567.51 867.435 1548.78 867.435C1540.38 867.435 1532.44 864.102 1526.53 858.046V865.745H1510.05ZM1566.81 831.613C1566.81 819.594 1558.27 811.19 1547.09 811.19C1536.2 811.19 1527.8 819.171 1527.37 830.768V831.613C1527.37 843.632 1535.92 852.036 1547.09 852.036C1558.27 852.036 1566.81 843.632 1566.81 831.613ZM1592.16 865.745V769.78H1609.49V865.745H1592.16ZM1633.71 890.629L1643.81 866.543L1616.39 797.527H1635.12L1652.59 845.745L1670.33 797.527H1689.35L1652.17 890.676H1633.71V890.629ZM1482.54 797.527V806.213C1476.53 799.64 1468.12 795.884 1459.48 795.884C1440.75 795.884 1424.13 810.157 1424.13 831.66C1424.13 853.21 1440.75 867.435 1459.48 867.435C1468.45 867.435 1476.95 863.539 1483.1 856.543V865.792H1498.22V797.527H1482.54ZM1480.85 831.613C1480.85 843.491 1472.3 852.036 1461.13 852.036C1449.95 852.036 1441.41 843.491 1441.41 831.613C1441.41 819.734 1449.95 811.19 1461.13 811.19C1472.02 811.19 1480.42 819.312 1480.85 830.768V831.613Z" fill="white"/>
<path d="M1309.59 751L1235.46 886.685L1221 876.544L1289.59 751H1309.59ZM1310.63 751L1384.76 886.685L1399.22 876.544L1330.63 751H1310.63Z" fill="url(#paint80_linear_11_451)"/>
<path d="M1383.73 887.483L1310.11 829.829L1236.49 887.483L1251.52 898L1310.11 852.13L1368.7 898L1383.73 887.483Z" fill="url(#paint81_linear_11_451)"/>
</g>
</g>
<defs>
<filter id="filter0_d_11_451" x="1191.9" y="654.762" width="279.171" height="101.837" filterUnits="userSpaceOnUse" color-interpolation-filters="sRGB">
<feFlood flood-opacity="0" result="BackgroundImageFix"/>
<feColorMatrix in="SourceAlpha" type="matrix" values="0 0 0 0 0 0 0 0 0 0 0 0 0 0 0 0 0 0 127 0" result="hardAlpha"/>
<feOffset dy="9"/>
<feGaussianBlur stdDeviation="6"/>
<feComposite in2="hardAlpha" operator="out"/>
<feColorMatrix type="matrix" values="0 0 0 0 0 0 0 0 0 0 0 0 0 0 0 0 0 0 0.41 0"/>
<feBlend mode="normal" in2="BackgroundImageFix" result="effect1_dropShadow_11_451"/>
<feBlend mode="normal" in="SourceGraphic" in2="effect1_dropShadow_11_451" result="shape"/>
</filter>
<filter id="filter1_d_11_451" x="17.3509" y="26.1169" width="641.935" height="295.091" filterUnits="userSpaceOnUse" color-interpolation-filters="sRGB">
<feFlood flood-opacity="0" result="BackgroundImageFix"/>
<feColorMatrix in="SourceAlpha" type="matrix" values="0 0 0 0 0 0 0 0 0 0 0 0 0 0 0 0 0 0 127 0" result="hardAlpha"/>
<feOffset dy="13"/>
<feGaussianBlur stdDeviation="8"/>
<feComposite in2="hardAlpha" operator="out"/>
<feColorMatrix type="matrix" values="0 0 0 0 0 0 0 0 0 0 0 0 0 0 0 0 0 0 0.38 0"/>
<feBlend mode="normal" in2="BackgroundImageFix" result="effect1_dropShadow_11_451"/>
<feBlend mode="normal" in="SourceGraphic" in2="effect1_dropShadow_11_451" result="shape"/>
</filter>
<filter id="filter2_d_11_451" x="1201" y="742" width="508.349" height="187" filterUnits="userSpaceOnUse" color-interpolation-filters="sRGB">
<feFlood flood-opacity="0" result="BackgroundImageFix"/>
<feColorMatrix in="SourceAlpha" type="matrix" values="0 0 0 0 0 0 0 0 0 0 0 0 0 0 0 0 0 0 127 0" result="hardAlpha"/>
<feOffset dy="11"/>
<feGaussianBlur stdDeviation="10"/>
<feComposite in2="hardAlpha" operator="out"/>
<feColorMatrix type="matrix" values="0 0 0 0 0 0 0 0 0 0 0 0 0 0 0 0 0 0 0.25 0"/>
<feBlend mode="normal" in2="BackgroundImageFix" result="effect1_dropShadow_11_451"/>
<feBlend mode="normal" in="SourceGraphic" in2="effect1_dropShadow_11_451" result="shape"/>
</filter>
<radialGradient id="paint0_radial_11_451" cx="0" cy="0" r="1" gradientUnits="userSpaceOnUse" gradientTransform="translate(898 544) rotate(90) scale(354 876)">
<stop offset="0.109375"/>
<stop offset="0.979167" stop-opacity="0"/>
</radialGradient>
<linearGradient id="paint1_linear_11_451" x1="336.428" y1="400.301" x2="336.428" y2="653.801" gradientUnits="userSpaceOnUse">
<stop stop-color="#160003"/>
<stop offset="1" stop-color="#CD0018"/>
</linearGradient>
<linearGradient id="paint2_linear_11_451" x1="230.397" y1="398.801" x2="230.397" y2="467.301" gradientUnits="userSpaceOnUse">
<stop stop-color="#160003"/>
<stop offset="1" stop-color="#CD0018"/>
</linearGradient>
<linearGradient id="paint3_linear_11_451" x1="1106.24" y1="398.417" x2="1106.24" y2="464.3" gradientUnits="userSpaceOnUse">
<stop stop-color="#160003"/>
<stop offset="1" stop-color="#CD0018"/>
</linearGradient>
<linearGradient id="paint4_linear_11_451" x1="1121.75" y1="398.301" x2="1121.75" y2="501.301" gradientUnits="userSpaceOnUse">
<stop stop-color="#160003"/>
<stop offset="1" stop-color="#CD0018"/>
</linearGradient>
<linearGradient id="paint5_linear_11_451" x1="1713.25" y1="506.301" x2="1713.25" y2="543.301" gradientUnits="userSpaceOnUse">
<stop stop-color="#160003"/>
<stop offset="1" stop-color="#CD0018"/>
</linearGradient>
<linearGradient id="paint6_linear_11_451" x1="1036.75" y1="547.801" x2="1036.75" y2="617.801" gradientUnits="userSpaceOnUse">
<stop stop-color="#160003"/>
<stop offset="1" stop-color="#CD0018"/>
</linearGradient>
<linearGradient id="paint7_linear_11_451" x1="1037.87" y1="505.301" x2="1037.87" y2="616.801" gradientUnits="userSpaceOnUse">
<stop stop-color="#160003"/>
<stop offset="1" stop-color="#CD0018"/>
</linearGradient>
<linearGradient id="paint8_linear_11_451" x1="1162.61" y1="392.801" x2="1162.61" y2="652.301" gradientUnits="userSpaceOnUse">
<stop stop-color="#160003"/>
<stop offset="1" stop-color="#CD0018"/>
</linearGradient>
<linearGradient id="paint9_linear_11_451" x1="1360.11" y1="398.301" x2="1360.11" y2="465.801" gradientUnits="userSpaceOnUse">
<stop stop-color="#160003"/>
<stop offset="1" stop-color="#CD0018"/>
</linearGradient>
<linearGradient id="paint10_linear_11_451" x1="348.988" y1="399.298" x2="348.988" y2="465.301" gradientUnits="userSpaceOnUse">
<stop stop-color="#160003"/>
<stop offset="1" stop-color="#CD0018"/>
</linearGradient>
<linearGradient id="paint11_linear_11_451" x1="431.333" y1="399.301" x2="431.333" y2="561.801" gradientUnits="userSpaceOnUse">
<stop stop-color="#160003"/>
<stop offset="1" stop-color="#CD0018"/>
</linearGradient>
<linearGradient id="paint12_linear_11_451" x1="476.944" y1="398.301" x2="476.944" y2="465.801" gradientUnits="userSpaceOnUse">
<stop stop-color="#160003"/>
<stop offset="1" stop-color="#CD0018"/>
</linearGradient>
<linearGradient id="paint13_linear_11_451" x1="546.008" y1="398.301" x2="546.008" y2="652.801" gradientUnits="userSpaceOnUse">
<stop stop-color="#160003"/>
<stop offset="1" stop-color="#CD0018"/>
</linearGradient>
<linearGradient id="paint14_linear_11_451" x1="419.427" y1="564.801" x2="419.427" y2="653.301" gradientUnits="userSpaceOnUse">
<stop stop-color="#160003"/>
<stop offset="1" stop-color="#CD0018"/>
</linearGradient>
<linearGradient id="paint15_linear_11_451" x1="571.847" y1="399.301" x2="571.847" y2="465.301" gradientUnits="userSpaceOnUse">
<stop stop-color="#160003"/>
<stop offset="1" stop-color="#CD0018"/>
</linearGradient>
<linearGradient id="paint16_linear_11_451" x1="636.373" y1="399.301" x2="636.373" y2="562.301" gradientUnits="userSpaceOnUse">
<stop stop-color="#160003"/>
<stop offset="1" stop-color="#CD0018"/>
</linearGradient>
<linearGradient id="paint17_linear_11_451" x1="721.085" y1="399.301" x2="721.085" y2="464.801" gradientUnits="userSpaceOnUse">
<stop stop-color="#160003"/>
<stop offset="1" stop-color="#CD0018"/>
</linearGradient>
<linearGradient id="paint18_linear_11_451" x1="858.565" y1="399.801" x2="858.565" y2="464.801" gradientUnits="userSpaceOnUse">
<stop stop-color="#160003"/>
<stop offset="1" stop-color="#CD0018"/>
</linearGradient>
<linearGradient id="paint19_linear_11_451" x1="936.867" y1="399.301" x2="936.867" y2="653.801" gradientUnits="userSpaceOnUse">
<stop stop-color="#160003"/>
<stop offset="1" stop-color="#CD0018"/>
</linearGradient>
<linearGradient id="paint20_linear_11_451" x1="765.286" y1="399.301" x2="765.286" y2="651.301" gradientUnits="userSpaceOnUse">
<stop stop-color="#160003"/>
<stop offset="1" stop-color="#CD0018"/>
</linearGradient>
<linearGradient id="paint21_linear_11_451" x1="829.96" y1="535.301" x2="829.96" y2="580.301" gradientUnits="userSpaceOnUse">
<stop stop-color="#160003"/>
<stop offset="1" stop-color="#CD0018"/>
</linearGradient>
<linearGradient id="paint22_linear_11_451" x1="1289.41" y1="503.801" x2="1289.41" y2="543.301" gradientUnits="userSpaceOnUse">
<stop stop-color="#160003"/>
<stop offset="1" stop-color="#CD0018"/>
</linearGradient>
<linearGradient id="paint23_linear_11_451" x1="1300.08" y1="545.801" x2="1300.08" y2="617.301" gradientUnits="userSpaceOnUse">
<stop stop-color="#160003"/>
<stop offset="1" stop-color="#CD0018"/>
</linearGradient>
<linearGradient id="paint24_linear_11_451" x1="1382.1" y1="397.301" x2="1382.1" y2="653.301" gradientUnits="userSpaceOnUse">
<stop stop-color="#160003"/>
<stop offset="1" stop-color="#CD0018"/>
</linearGradient>
<linearGradient id="paint25_linear_11_451" x1="1428.82" y1="580.301" x2="1428.82" y2="653.301" gradientUnits="userSpaceOnUse">
<stop stop-color="#160003"/>
<stop offset="1" stop-color="#CD0018"/>
</linearGradient>
<linearGradient id="paint26_linear_11_451" x1="1442.27" y1="506.301" x2="1442.27" y2="544.801" gradientUnits="userSpaceOnUse">
<stop stop-color="#160003"/>
<stop offset="1" stop-color="#CD0018"/>
</linearGradient>
<linearGradient id="paint27_linear_11_451" x1="1456.63" y1="505.801" x2="1456.63" y2="544.301" gradientUnits="userSpaceOnUse">
<stop stop-color="#160003"/>
<stop offset="1" stop-color="#CD0018"/>
</linearGradient>
<linearGradient id="paint28_linear_11_451" x1="1529.61" y1="397.301" x2="1529.61" y2="466.301" gradientUnits="userSpaceOnUse">
<stop stop-color="#160003"/>
<stop offset="1" stop-color="#CD0018"/>
</linearGradient>
<linearGradient id="paint29_linear_11_451" x1="1546.37" y1="399.301" x2="1546.37" y2="498.301" gradientUnits="userSpaceOnUse">
<stop stop-color="#160003"/>
<stop offset="1" stop-color="#CD0018"/>
</linearGradient>
<linearGradient id="paint30_linear_11_451" x1="1503.27" y1="555.801" x2="1503.27" y2="580.301" gradientUnits="userSpaceOnUse">
<stop stop-color="#160003"/>
<stop offset="1" stop-color="#CD0018"/>
</linearGradient>
<linearGradient id="paint31_linear_11_451" x1="1621.12" y1="579.801" x2="1621.12" y2="619.301" gradientUnits="userSpaceOnUse">
<stop stop-color="#160003"/>
<stop offset="1" stop-color="#CD0018"/>
</linearGradient>
<linearGradient id="paint32_linear_11_451" x1="1539.9" y1="519.301" x2="1539.9" y2="616.307" gradientUnits="userSpaceOnUse">
<stop stop-color="#160003"/>
<stop offset="1" stop-color="#CD0018"/>
</linearGradient>
<linearGradient id="paint33_linear_11_451" x1="1618.22" y1="517.801" x2="1618.22" y2="589.801" gradientUnits="userSpaceOnUse">
<stop stop-color="#160003"/>
<stop offset="1" stop-color="#CD0018"/>
</linearGradient>
<linearGradient id="paint34_linear_11_451" x1="1643.25" y1="579.801" x2="1643.25" y2="619.301" gradientUnits="userSpaceOnUse">
<stop stop-color="#160003"/>
<stop offset="1" stop-color="#CD0018"/>
</linearGradient>
<linearGradient id="paint35_linear_11_451" x1="1579.96" y1="432.301" x2="1579.96" y2="544.301" gradientUnits="userSpaceOnUse">
<stop stop-color="#160003"/>
<stop offset="1" stop-color="#CD0018"/>
</linearGradient>
<linearGradient id="paint36_linear_11_451" x1="1653.75" y1="398.801" x2="1653.75" y2="500.301" gradientUnits="userSpaceOnUse">
<stop stop-color="#160003"/>
<stop offset="1" stop-color="#CD0018"/>
</linearGradient>
<linearGradient id="paint37_linear_11_451" x1="1758.66" y1="398.301" x2="1758.66" y2="465.801" gradientUnits="userSpaceOnUse">
<stop stop-color="#160003"/>
<stop offset="1" stop-color="#CD0018"/>
</linearGradient>
<linearGradient id="paint38_linear_11_451" x1="1688.41" y1="506.301" x2="1688.41" y2="534.801" gradientUnits="userSpaceOnUse">
<stop stop-color="#160003"/>
<stop offset="1" stop-color="#CD0018"/>
</linearGradient>
<linearGradient id="paint39_linear_11_451" x1="1720.14" y1="522.301" x2="1720.14" y2="572.801" gradientUnits="userSpaceOnUse">
<stop stop-color="#160003"/>
<stop offset="1" stop-color="#CD0018"/>
</linearGradient>
<linearGradient id="paint40_linear_11_451" x1="934.135" y1="463.801" x2="934.135" y2="655.301" gradientUnits="userSpaceOnUse">
<stop stop-color="#FFE213"/>
<stop offset="1" stop-color="#FFFBDB"/>
</linearGradient>
<linearGradient id="paint41_linear_11_451" x1="934.135" y1="463.801" x2="934.135" y2="655.301" gradientUnits="userSpaceOnUse">
<stop stop-color="#FFE213"/>
<stop offset="1" stop-color="#FFFBDB"/>
</linearGradient>
<linearGradient id="paint42_linear_11_451" x1="934.135" y1="463.801" x2="934.135" y2="655.301" gradientUnits="userSpaceOnUse">
<stop stop-color="#FFE213"/>
<stop offset="1" stop-color="#FFFBDB"/>
</linearGradient>
<linearGradient id="paint43_linear_11_451" x1="934.135" y1="463.801" x2="934.135" y2="655.301" gradientUnits="userSpaceOnUse">
<stop stop-color="#FFE213"/>
<stop offset="1" stop-color="#FFFBDB"/>
</linearGradient>
<linearGradient id="paint44_linear_11_451" x1="934.135" y1="463.801" x2="934.135" y2="655.301" gradientUnits="userSpaceOnUse">
<stop stop-color="#FFE213"/>
<stop offset="1" stop-color="#FFFBDB"/>
</linearGradient>
<linearGradient id="paint45_linear_11_451" x1="934.135" y1="463.801" x2="934.135" y2="655.301" gradientUnits="userSpaceOnUse">
<stop stop-color="#FFE213"/>
<stop offset="1" stop-color="#FFFBDB"/>
</linearGradient>
<linearGradient id="paint46_linear_11_451" x1="934.135" y1="463.801" x2="934.135" y2="655.301" gradientUnits="userSpaceOnUse">
<stop stop-color="#FFE213"/>
<stop offset="1" stop-color="#FFFBDB"/>
</linearGradient>
<linearGradient id="paint47_linear_11_451" x1="934.135" y1="463.801" x2="934.135" y2="655.301" gradientUnits="userSpaceOnUse">
<stop stop-color="#FFE213"/>
<stop offset="1" stop-color="#FFFBDB"/>
</linearGradient>
<linearGradient id="paint48_linear_11_451" x1="1066.78" y1="132.301" x2="1066.78" y2="380.326" gradientUnits="userSpaceOnUse">
<stop stop-color="#160003"/>
<stop offset="1" stop-color="#CD0018"/>
</linearGradient>
<linearGradient id="paint49_linear_11_451" x1="1137.04" y1="80.8005" x2="1137.04" y2="203.801" gradientUnits="userSpaceOnUse">
<stop stop-color="#160003"/>
<stop offset="1" stop-color="#CD0018"/>
</linearGradient>
<linearGradient id="paint50_linear_11_451" x1="1291.79" y1="80.8005" x2="1291.79" y2="203.801" gradientUnits="userSpaceOnUse">
<stop stop-color="#160003"/>
<stop offset="1" stop-color="#CD0018"/>
</linearGradient>
<linearGradient id="paint51_linear_11_451" x1="622.635" y1="79.3005" x2="622.635" y2="150.801" gradientUnits="userSpaceOnUse">
<stop stop-color="#160003"/>
<stop offset="1" stop-color="#CD0018"/>
</linearGradient>
<linearGradient id="paint52_linear_11_451" x1="789.309" y1="79.8005" x2="789.309" y2="205.801" gradientUnits="userSpaceOnUse">
<stop stop-color="#160003"/>
<stop offset="1" stop-color="#CD0018"/>
</linearGradient>
<linearGradient id="paint53_linear_11_451" x1="790.268" y1="133.791" x2="790.268" y2="308.801" gradientUnits="userSpaceOnUse">
<stop stop-color="#160003"/>
<stop offset="1" stop-color="#CD0018"/>
</linearGradient>
<linearGradient id="paint54_linear_11_451" x1="390.635" y1="79.3005" x2="390.635" y2="150.801" gradientUnits="userSpaceOnUse">
<stop stop-color="#160003"/>
<stop offset="1" stop-color="#CD0018"/>
</linearGradient>
<linearGradient id="paint55_linear_11_451" x1="941.635" y1="79.3005" x2="941.635" y2="150.801" gradientUnits="userSpaceOnUse">
<stop stop-color="#160003"/>
<stop offset="1" stop-color="#CD0018"/>
</linearGradient>
<linearGradient id="paint56_linear_11_451" x1="1222.64" y1="79.3005" x2="1222.64" y2="150.801" gradientUnits="userSpaceOnUse">
<stop stop-color="#160003"/>
<stop offset="1" stop-color="#CD0018"/>
</linearGradient>
<linearGradient id="paint57_linear_11_451" x1="1461.64" y1="79.3005" x2="1461.64" y2="150.801" gradientUnits="userSpaceOnUse">
<stop stop-color="#160003"/>
<stop offset="1" stop-color="#CD0018"/>
</linearGradient>
<linearGradient id="paint58_linear_11_451" x1="1488.05" y1="206.301" x2="1488.05" y2="264.813" gradientUnits="userSpaceOnUse">
<stop stop-color="#160003"/>
<stop offset="1" stop-color="#CD0018"/>
</linearGradient>
<linearGradient id="paint59_linear_11_451" x1="1484.64" y1="307.301" x2="1484.64" y2="378.801" gradientUnits="userSpaceOnUse">
<stop stop-color="#160003"/>
<stop offset="1" stop-color="#CD0018"/>
</linearGradient>
<linearGradient id="paint60_linear_11_451" x1="1278.64" y1="245.301" x2="1278.64" y2="324.301" gradientUnits="userSpaceOnUse">
<stop stop-color="#160003"/>
<stop offset="1" stop-color="#CD0018"/>
</linearGradient>
<linearGradient id="paint61_linear_11_451" x1="1184.28" y1="244.75" x2="1184.28" y2="379.849" gradientUnits="userSpaceOnUse">
<stop stop-color="#160003"/>
<stop offset="1" stop-color="#CD0018"/>
</linearGradient>
<linearGradient id="paint62_linear_11_451" x1="1160.59" y1="300.301" x2="1160.59" y2="372.301" gradientUnits="userSpaceOnUse">
<stop stop-color="#160003"/>
<stop offset="1" stop-color="#CD0018"/>
</linearGradient>
<linearGradient id="paint63_linear_11_451" x1="963.635" y1="252.301" x2="963.635" y2="323.801" gradientUnits="userSpaceOnUse">
<stop stop-color="#160003"/>
<stop offset="1" stop-color="#CD0018"/>
</linearGradient>
<linearGradient id="paint64_linear_11_451" x1="1196.07" y1="204.801" x2="1196.07" y2="254.801" gradientUnits="userSpaceOnUse">
<stop stop-color="#160003"/>
<stop offset="1" stop-color="#CD0018"/>
</linearGradient>
<linearGradient id="paint65_linear_11_451" x1="1040.01" y1="77.8005" x2="1040.01" y2="416.301" gradientUnits="userSpaceOnUse">
<stop stop-color="#160003"/>
<stop offset="1" stop-color="#CD0018"/>
</linearGradient>
<linearGradient id="paint66_linear_11_451" x1="1376.37" y1="80.3005" x2="1376.37" y2="428.801" gradientUnits="userSpaceOnUse">
<stop stop-color="#160003"/>
<stop offset="1" stop-color="#CD0018"/>
</linearGradient>
<linearGradient id="paint67_linear_11_451" x1="862.887" y1="79.8005" x2="862.887" y2="424.301" gradientUnits="userSpaceOnUse">
<stop stop-color="#160003"/>
<stop offset="1" stop-color="#CD0018"/>
</linearGradient>
<linearGradient id="paint68_linear_11_451" x1="675.312" y1="205.301" x2="675.312" y2="308.301" gradientUnits="userSpaceOnUse">
<stop stop-color="#160003"/>
<stop offset="1" stop-color="#CD0018"/>
</linearGradient>
<linearGradient id="paint69_linear_11_451" x1="695.953" y1="233.801" x2="695.953" y2="308.301" gradientUnits="userSpaceOnUse">
<stop stop-color="#160003"/>
<stop offset="1" stop-color="#CD0018"/>
</linearGradient>
<linearGradient id="paint70_linear_11_451" x1="520.79" y1="79.8005" x2="520.79" y2="199.801" gradientUnits="userSpaceOnUse">
<stop stop-color="#160003"/>
<stop offset="1" stop-color="#CD0018"/>
</linearGradient>
<linearGradient id="paint71_linear_11_451" x1="489.488" y1="211.801" x2="489.488" y2="267.301" gradientUnits="userSpaceOnUse">
<stop stop-color="#160003"/>
<stop offset="1" stop-color="#CD0018"/>
</linearGradient>
<linearGradient id="paint72_linear_11_451" x1="552.816" y1="208.301" x2="552.816" y2="307.801" gradientUnits="userSpaceOnUse">
<stop stop-color="#160003"/>
<stop offset="1" stop-color="#CD0018"/>
</linearGradient>
<linearGradient id="paint73_linear_11_451" x1="570.651" y1="229.801" x2="570.651" y2="379.801" gradientUnits="userSpaceOnUse">
<stop stop-color="#160003"/>
<stop offset="1" stop-color="#CD0018"/>
</linearGradient>
<linearGradient id="paint74_linear_11_451" x1="426.29" y1="309.301" x2="426.29" y2="341.301" gradientUnits="userSpaceOnUse">
<stop stop-color="#160003"/>
<stop offset="1" stop-color="#CD0018"/>
</linearGradient>
<linearGradient id="paint75_linear_11_451" x1="449.101" y1="324.301" x2="449.101" y2="379.301" gradientUnits="userSpaceOnUse">
<stop stop-color="#160003"/>
<stop offset="1" stop-color="#CD0018"/>
</linearGradient>
<linearGradient id="paint76_linear_11_451" x1="465.812" y1="331.301" x2="465.812" y2="378.801" gradientUnits="userSpaceOnUse">
<stop stop-color="#160003"/>
<stop offset="1" stop-color="#CD0018"/>
</linearGradient>
<linearGradient id="paint77_linear_11_451" x1="697.037" y1="349.301" x2="697.037" y2="426.801" gradientUnits="userSpaceOnUse">
<stop stop-color="#160003"/>
<stop offset="1" stop-color="#CD0018"/>
</linearGradient>
<linearGradient id="paint78_linear_11_451" x1="528.594" y1="126.801" x2="528.594" y2="248.301" gradientUnits="userSpaceOnUse">
<stop stop-color="#160003"/>
<stop offset="1" stop-color="#CD0018"/>
</linearGradient>
<linearGradient id="paint79_linear_11_451" x1="414.151" y1="199.801" x2="414.151" y2="266.301" gradientUnits="userSpaceOnUse">
<stop stop-color="#160003"/>
<stop offset="1" stop-color="#CD0018"/>
</linearGradient>
<linearGradient id="paint80_linear_11_451" x1="1246.14" y1="922.907" x2="1370.11" y2="785.224" gradientUnits="userSpaceOnUse">
<stop stop-color="#FF5416"/>
<stop offset="0.2535" stop-color="#FF5115"/>
<stop offset="0.461" stop-color="#FF4712"/>
<stop offset="0.6523" stop-color="#FF350E"/>
<stop offset="0.8327" stop-color="#FF1E08"/>
<stop offset="1" stop-color="#FF0000"/>
</linearGradient>
<linearGradient id="paint81_linear_11_451" x1="1270.19" y1="931.807" x2="1343.46" y2="850.433" gradientUnits="userSpaceOnUse">
<stop stop-color="#FF5416"/>
<stop offset="0.2535" stop-color="#FF5115"/>
<stop offset="0.461" stop-color="#FF4712"/>
<stop offset="0.6523" stop-color="#FF350E"/>
<stop offset="0.8327" stop-color="#FF1E08"/>
<stop offset="1" stop-color="#FF0000"/>
</linearGradient>
<clipPath id="clip0_11_451">
<rect width="1799" height="923" fill="white"/>
</clipPath>
</defs>
</svg>
